<svg width="70" height="70" viewBox="0 0 70 70" fill="none" xmlns="http://www.w3.org/2000/svg">
<rect width="70" height="70" rx="10" fill="white"/>
<path d="M47.282 14.9613C47.1951 14.8573 47.0864 14.7736 46.9636 14.7163C46.8408 14.6589 46.7069 14.6291 46.5714 14.6291H27.9022L27.3363 11.5207C27.2588 11.094 27.034 10.7081 26.7011 10.4302C26.3682 10.1523 25.9483 10.0001 25.5147 10H23.4258C23.1803 10 22.9448 10.0975 22.7712 10.2712C22.5975 10.4448 22.5 10.6803 22.5 10.9258C22.5 11.1714 22.5975 11.4069 22.7712 11.5805C22.9448 11.7541 23.1803 11.8517 23.4258 11.8517H25.5089L28.4669 28.0872C28.5541 28.5687 28.7669 29.0187 29.0838 29.3915C28.6464 29.8 28.3307 30.3217 28.1717 30.8988C28.0127 31.4758 28.0166 32.0855 28.183 32.6605C28.3494 33.2354 28.6717 33.753 29.1143 34.1559C29.5569 34.5588 30.1025 34.8312 30.6905 34.943C31.2785 35.0548 31.8859 35.0015 32.4455 34.7891C33.005 34.5767 33.4949 34.2135 33.8606 33.7397C34.2263 33.266 34.4537 32.7002 34.5175 32.105C34.5813 31.5099 34.4791 30.9088 34.2221 30.3682H39.4784C39.2713 30.8019 39.1641 31.2764 39.1648 31.757C39.1648 32.3979 39.3549 33.0244 39.7109 33.5573C40.067 34.0901 40.5731 34.5055 41.1652 34.7507C41.7573 34.996 42.4088 35.0602 43.0374 34.9351C43.6659 34.8101 44.2433 34.5015 44.6965 34.0483C45.1497 33.5951 45.4583 33.0177 45.5833 32.3892C45.7083 31.7606 45.6442 31.1091 45.3989 30.5169C45.1537 29.9248 44.7383 29.4188 44.2055 29.0627C43.6726 28.7066 43.0461 28.5166 42.4052 28.5166H31.1993C30.9824 28.5166 30.7725 28.4404 30.6061 28.3015C30.4396 28.1625 30.3272 27.9696 30.2885 27.7563L29.9216 25.7391H43.3461C43.9965 25.739 44.6263 25.5106 45.1256 25.0938C45.6249 24.6769 45.9621 24.0981 46.0784 23.4581L47.4856 15.7205C47.5095 15.5867 47.5036 15.4494 47.4684 15.3182C47.4332 15.187 47.3695 15.0651 47.282 14.9613ZM32.6841 31.757C32.6841 32.0317 32.6026 32.3002 32.45 32.5285C32.2974 32.7569 32.0805 32.9349 31.8268 33.04C31.573 33.1451 31.2938 33.1726 31.0244 33.1191C30.755 33.0655 30.5076 32.9332 30.3133 32.739C30.1191 32.5448 29.9869 32.2973 29.9333 32.0279C29.8797 31.7585 29.9072 31.4793 30.0123 31.2255C30.1174 30.9718 30.2954 30.7549 30.5238 30.6023C30.7522 30.4497 31.0207 30.3682 31.2953 30.3682C31.6636 30.3682 32.0169 30.5146 32.2773 30.775C32.5377 31.0354 32.6841 31.3887 32.6841 31.757ZM43.7939 31.757C43.7939 32.0317 43.7125 32.3002 43.5599 32.5285C43.4073 32.7569 43.1904 32.9349 42.9366 33.04C42.6829 33.1451 42.4037 33.1726 42.1343 33.1191C41.8649 33.0655 41.6174 32.9332 41.4232 32.739C41.229 32.5448 41.0967 32.2973 41.0431 32.0279C40.9896 31.7585 41.0171 31.4793 41.1222 31.2255C41.2273 30.9718 41.4053 30.7549 41.6337 30.6023C41.862 30.4497 42.1305 30.3682 42.4052 30.3682C42.7735 30.3682 43.1267 30.5146 43.3872 30.775C43.6476 31.0354 43.7939 31.3887 43.7939 31.757ZM44.2568 23.1271C44.218 23.341 44.1051 23.5344 43.9379 23.6735C43.7708 23.8125 43.56 23.8882 43.3426 23.8874H29.5849L28.2389 16.4808H45.4616L44.2568 23.1271Z" fill="#9B9B9B"/>
<path d="M11.5742 50.8389L16.3184 56H14.3154L10.0635 51.3721H10.0088V56H8.47754V46.1357H10.0088V50.5518H10.0635L14.083 46.1357H15.915L11.5742 50.8389ZM19.9209 56.1367C17.8633 56.1367 16.5098 54.7217 16.5098 52.4043C16.5098 50.0938 17.8701 48.6787 19.9209 48.6787C21.9717 48.6787 23.332 50.0938 23.332 52.4043C23.332 54.7217 21.9785 56.1367 19.9209 56.1367ZM19.9209 54.9199C21.083 54.9199 21.8281 54.0039 21.8281 52.4043C21.8281 50.8115 21.0762 49.8955 19.9209 49.8955C18.7656 49.8955 18.0137 50.8115 18.0137 52.4043C18.0137 54.0039 18.7656 54.9199 19.9209 54.9199ZM28.3564 48.6924C30.1816 48.6924 31.3848 50.1279 31.3848 52.4043C31.3848 54.6807 30.1885 56.123 28.3838 56.123C27.3516 56.123 26.5312 55.6172 26.1211 54.8174H26.0869V58.3789H24.6104V48.8086H26.0391V50.0459H26.0664C26.4902 49.2188 27.3174 48.6924 28.3564 48.6924ZM27.9668 54.8721C29.1357 54.8721 29.8672 53.915 29.8672 52.4043C29.8672 50.9004 29.1357 49.9365 27.9668 49.9365C26.8389 49.9365 26.0801 50.9209 26.0801 52.4043C26.0801 53.9014 26.832 54.8721 27.9668 54.8721ZM35.2402 56.1367C33.5586 56.1367 32.3896 55.3096 32.2598 53.9834H33.7158C33.8662 54.6055 34.4131 54.9473 35.2402 54.9473C36.1836 54.9473 36.71 54.5098 36.71 53.874C36.71 53.1562 36.2246 52.8281 35.2471 52.8281H34.1943V51.7412H35.2266C36.0537 51.7412 36.4844 51.4268 36.4844 50.7979C36.4844 50.2441 36.0879 49.8545 35.2471 49.8545C34.4541 49.8545 33.9209 50.1963 33.8252 50.7568H32.4102C32.5605 49.4785 33.6338 48.6787 35.2402 48.6787C36.9834 48.6787 37.9268 49.458 37.9268 50.6543C37.9268 51.3857 37.4756 52.0078 36.7783 52.1855V52.2402C37.6943 52.4521 38.1797 53.0469 38.1797 53.8672C38.1797 55.2344 37.0244 56.1367 35.2402 56.1367ZM40.9346 56H39.4785V48.8086H40.9346V53.8467H40.9893L44.3115 48.8086H45.7676V56H44.3115V50.9482H44.2568L40.9346 56ZM52.0771 56V52.8691H48.8232V56H47.3535V48.8086H48.8232V51.707H52.0771V48.8086H53.5469V56H52.0771ZM57.6689 54.9541C58.7012 54.9541 59.5078 54.2432 59.5078 53.3066V52.7393L57.7373 52.8486C56.8555 52.9102 56.3564 53.2998 56.3564 53.915C56.3564 54.5439 56.876 54.9541 57.6689 54.9541ZM57.2588 56.123C55.8506 56.123 54.8662 55.248 54.8662 53.9561C54.8662 52.6982 55.8301 51.9258 57.5391 51.8301L59.5078 51.7139V51.1602C59.5078 50.3604 58.9678 49.8818 58.0654 49.8818C57.2109 49.8818 56.6777 50.292 56.5479 50.9346H55.1533C55.2354 49.6357 56.3428 48.6787 58.1201 48.6787C59.8633 48.6787 60.9775 49.6016 60.9775 51.0439V56H59.5625V54.8174H59.5283C59.1113 55.6172 58.2021 56.123 57.2588 56.123Z" fill="#9B9B9B"/>
</svg>
