<svg width="70" height="70" viewBox="0 0 70 70" fill="none" xmlns="http://www.w3.org/2000/svg">
<rect width="70" height="70" rx="10" fill="white"/>
<rect x="22.5" y="10" width="9.61539" height="9.61539" rx="1" fill="#D56ED7"/>
<rect x="37.8846" y="10" width="9.61538" height="9.61539" rx="1" fill="#D56ED7"/>
<rect x="37.8846" y="25.3845" width="9.61538" height="9.61538" rx="1" fill="#D56ED7"/>
<rect x="22.5" y="25.3845" width="9.61539" height="9.61538" rx="1" fill="#D56ED7"/>
<path d="M13.0742 50.8389L17.8184 56H15.8154L11.5635 51.3721H11.5088V56H9.97754V46.1357H11.5088V50.5518H11.5635L15.583 46.1357H17.415L13.0742 50.8389ZM21.0381 54.9541C22.0703 54.9541 22.877 54.2432 22.877 53.3066V52.7393L21.1064 52.8486C20.2246 52.9102 19.7256 53.2998 19.7256 53.915C19.7256 54.5439 20.2451 54.9541 21.0381 54.9541ZM20.6279 56.123C19.2197 56.123 18.2354 55.248 18.2354 53.9561C18.2354 52.6982 19.1992 51.9258 20.9082 51.8301L22.877 51.7139V51.1602C22.877 50.3604 22.3369 49.8818 21.4346 49.8818C20.5801 49.8818 20.0469 50.292 19.917 50.9346H18.5225C18.6045 49.6357 19.7119 48.6787 21.4893 48.6787C23.2324 48.6787 24.3467 49.6016 24.3467 51.0439V56H22.9316V54.8174H22.8975C22.4805 55.6172 21.5713 56.123 20.6279 56.123ZM31.2578 48.8086V49.9775H29.002V56H27.5322V49.9775H25.2764V48.8086H31.2578ZM34.6279 54.9541C35.6602 54.9541 36.4668 54.2432 36.4668 53.3066V52.7393L34.6963 52.8486C33.8145 52.9102 33.3154 53.2998 33.3154 53.915C33.3154 54.5439 33.835 54.9541 34.6279 54.9541ZM34.2178 56.123C32.8096 56.123 31.8252 55.248 31.8252 53.9561C31.8252 52.6982 32.7891 51.9258 34.498 51.8301L36.4668 51.7139V51.1602C36.4668 50.3604 35.9268 49.8818 35.0244 49.8818C34.1699 49.8818 33.6367 50.292 33.5068 50.9346H32.1123C32.1943 49.6357 33.3018 48.6787 35.0791 48.6787C36.8223 48.6787 37.9365 49.6016 37.9365 51.0439V56H36.5215V54.8174H36.4873C36.0703 55.6172 35.1611 56.123 34.2178 56.123ZM41.6621 52.7256C41.5254 54.7627 41.0127 56.0684 39.3994 56.0684C39.1602 56.0684 38.9893 56.0273 38.9004 55.9932V54.6943C38.9688 54.7148 39.1055 54.749 39.29 54.749C39.9873 54.749 40.2334 53.915 40.3154 52.6641L40.5615 48.8086H45.5449V56H44.0752V49.9775H41.8604L41.6621 52.7256ZM50.2275 56.1367C48.1699 56.1367 46.8164 54.7217 46.8164 52.4043C46.8164 50.0938 48.1768 48.6787 50.2275 48.6787C52.2783 48.6787 53.6387 50.0938 53.6387 52.4043C53.6387 54.7217 52.2852 56.1367 50.2275 56.1367ZM50.2275 54.9199C51.3896 54.9199 52.1348 54.0039 52.1348 52.4043C52.1348 50.8115 51.3828 49.8955 50.2275 49.8955C49.0723 49.8955 48.3203 50.8115 48.3203 52.4043C48.3203 54.0039 49.0723 54.9199 50.2275 54.9199ZM59.6748 49.9775H56.3799V56H54.9102V48.8086H59.6748V49.9775Z" fill="#D56ED7"/>
</svg>
