<svg width="70" height="70" viewBox="0 0 70 70" fill="none" xmlns="http://www.w3.org/2000/svg">
<rect width="70" height="70" rx="10" fill="white"/>
<path d="M35 10C32.5277 10 30.111 10.7331 28.0554 12.1066C25.9998 13.4801 24.3976 15.4324 23.4515 17.7165C22.5054 20.0005 22.2579 22.5139 22.7402 24.9386C23.2225 27.3634 24.413 29.5907 26.1612 31.3388C27.9093 33.087 30.1366 34.2775 32.5614 34.7598C34.9861 35.2421 37.4995 34.9946 39.7835 34.0485C42.0676 33.1024 44.0199 31.5002 45.3934 29.4446C46.7669 27.389 47.5 24.9723 47.5 22.5C47.4965 19.1859 46.1784 16.0085 43.835 13.665C41.4915 11.3216 38.3141 10.0035 35 10ZM28.5192 30.8534C29.2148 29.7655 30.1731 28.8702 31.3057 28.2501C32.4383 27.6299 33.7087 27.3049 35 27.3049C36.2913 27.3049 37.5617 27.6299 38.6943 28.2501C39.8269 28.8702 40.7852 29.7655 41.4808 30.8534C39.6278 32.2945 37.3474 33.0768 35 33.0768C32.6526 33.0768 30.3722 32.2945 28.5192 30.8534ZM31.1538 21.5385C31.1538 20.7778 31.3794 20.0341 31.802 19.4017C32.2247 18.7692 32.8254 18.2762 33.5281 17.9851C34.2309 17.694 35.0043 17.6178 35.7503 17.7662C36.4964 17.9146 37.1817 18.2809 37.7196 18.8188C38.2575 19.3567 38.6238 20.042 38.7723 20.7881C38.9207 21.5342 38.8445 22.3075 38.5534 23.0103C38.2623 23.7131 37.7693 24.3138 37.1368 24.7364C36.5043 25.159 35.7607 25.3846 35 25.3846C33.9799 25.3846 33.0017 24.9794 32.2804 24.2581C31.5591 23.5368 31.1538 22.5585 31.1538 21.5385ZM42.9038 29.5204C41.8315 27.9664 40.3235 26.7642 38.5697 26.0649C39.5118 25.3229 40.1992 24.3057 40.5365 23.1549C40.8737 22.0041 40.8439 20.7768 40.4512 19.6437C40.0586 18.5106 39.3226 17.528 38.3456 16.8326C37.3686 16.1371 36.1992 15.7634 35 15.7634C33.8008 15.7634 32.6314 16.1371 31.6544 16.8326C30.6774 17.528 29.9414 18.5106 29.5488 19.6437C29.1561 20.7768 29.1263 22.0041 29.4636 23.1549C29.8008 24.3057 30.4882 25.3229 31.4303 26.0649C29.6765 26.7642 28.1686 27.9664 27.0962 29.5204C25.7411 27.9966 24.8554 26.1135 24.5457 24.098C24.2361 22.0824 24.5157 20.0203 25.3509 18.16C26.186 16.2996 27.5412 14.7204 29.2531 13.6124C30.9651 12.5044 32.9608 11.915 35 11.915C37.0392 11.915 39.0349 12.5044 40.7469 13.6124C42.4588 14.7204 43.814 16.2996 44.6491 18.16C45.4843 20.0203 45.7639 22.0824 45.4543 24.098C45.1446 26.1135 44.2589 27.9966 42.9038 29.5204Z" fill="#9B9B9B"/>
<path d="M12.0742 50.8389L16.8184 56H14.8154L10.5635 51.3721H10.5088V56H8.97754V46.1357H10.5088V50.5518H10.5635L14.583 46.1357H16.415L12.0742 50.8389ZM20.0381 54.9541C21.0703 54.9541 21.877 54.2432 21.877 53.3066V52.7393L20.1064 52.8486C19.2246 52.9102 18.7256 53.2998 18.7256 53.915C18.7256 54.5439 19.2451 54.9541 20.0381 54.9541ZM19.6279 56.123C18.2197 56.123 17.2354 55.248 17.2354 53.9561C17.2354 52.6982 18.1992 51.9258 19.9082 51.8301L21.877 51.7139V51.1602C21.877 50.3604 21.3369 49.8818 20.4346 49.8818C19.5801 49.8818 19.0469 50.292 18.917 50.9346H17.5225C17.6045 49.6357 18.7119 48.6787 20.4893 48.6787C22.2324 48.6787 23.3467 49.6016 23.3467 51.0439V56H21.9316V54.8174H21.8975C21.4805 55.6172 20.5713 56.123 19.6279 56.123ZM28.1045 56.1367C25.8555 56.1367 24.6387 54.667 24.6387 51.8232C24.6387 47.8311 25.8008 46.2109 28.5352 46.1152L29.1777 46.0947C29.9502 46.0605 30.7295 45.917 31.0576 45.7393V46.9629C30.873 47.1338 30.1416 47.3115 29.2598 47.3457L28.6309 47.3662C26.71 47.4346 26.1016 48.2959 25.835 50.3262H25.8896C26.3477 49.4785 27.2158 49.0137 28.3438 49.0137C30.2852 49.0137 31.5293 50.3672 31.5293 52.4863C31.5293 54.749 30.2236 56.1367 28.1045 56.1367ZM28.0908 54.8994C29.3076 54.8994 30.0186 54.0381 30.0186 52.5068C30.0186 51.0508 29.3076 50.2168 28.0908 50.2168C26.8672 50.2168 26.1494 51.0508 26.1494 52.5068C26.1494 54.0381 26.8604 54.8994 28.0908 54.8994ZM34.2568 56H32.8008V48.8086H34.2568V53.8467H34.3115L37.6338 48.8086H39.0898V56H37.6338V50.9482H37.5791L34.2568 56ZM45.3994 56V52.8691H42.1455V56H40.6758V48.8086H42.1455V51.707H45.3994V48.8086H46.8691V56H45.3994ZM51.4834 49.8682C50.4512 49.8682 49.7266 50.6543 49.6514 51.7412H53.2471C53.2129 50.6406 52.5156 49.8682 51.4834 49.8682ZM53.2402 53.8877H54.6416C54.4365 55.2002 53.1924 56.1367 51.5449 56.1367C49.4326 56.1367 48.1543 54.708 48.1543 52.4385C48.1543 50.1826 49.4531 48.6787 51.4834 48.6787C53.4795 48.6787 54.7236 50.0869 54.7236 52.2676V52.7734H49.6445V52.8623C49.6445 54.1133 50.3965 54.9404 51.5791 54.9404C52.4199 54.9404 53.042 54.5166 53.2402 53.8877ZM61.1973 48.8086V49.9775H58.9414V56H57.4717V49.9775H55.2158V48.8086H61.1973Z" fill="#9B9B9B"/>
</svg>
