<svg width="28" height="17" viewBox="0 0 28 17" fill="none" xmlns="http://www.w3.org/2000/svg">
<g id="&#208;&#184;&#208;&#186;&#208;&#190;&#208;&#189;&#208;&#186;&#208;&#176;/&#208;&#178;&#208;&#186;">
<path id="Vector" d="M16.9549 8.17727C16.4429 7.97632 16.4429 7.20884 16.4111 6.67439C16.2831 4.77067 16.9231 1.86431 16.1551 0.62865C15.6114 -0.106758 12.9869 -0.0394166 11.3874 0.0610606C10.9389 0.128402 10.3952 0.227811 10.0112 0.428766C9.6272 0.62972 9.2432 0.963218 9.2432 1.26358C9.2432 1.69756 10.2037 1.63129 10.5549 2.19887C10.9389 2.80067 10.9389 4.1026 10.9389 5.1715C10.9389 6.40716 10.7464 8.04473 10.2672 8.111C9.53094 8.14414 9.1152 7.37559 8.73121 6.808C7.96322 5.70596 7.19523 4.33562 6.61872 2.99949C6.33098 2.29828 6.17022 1.52974 5.75448 1.22938C5.11449 0.761195 3.9625 0.728059 2.84226 0.761195C1.81827 0.794332 0.345777 0.660718 0.0580363 1.29565C-0.166217 1.99685 0.314033 2.66492 0.57003 3.23358C1.88176 6.20621 3.28974 8.8122 5.01823 11.2835C6.61872 13.5881 8.12194 15.4255 11.0659 16.394C11.8984 16.6612 15.5458 17.4297 16.2821 16.394C16.5381 15.9931 16.4746 15.091 16.6026 14.4229C16.7306 13.7548 16.8903 13.0868 17.4986 13.0536C18.0106 13.0205 18.2983 13.4876 18.6188 13.8222C18.9711 14.1899 19.2588 14.4902 19.5148 14.8248C20.1231 15.4597 20.7631 16.3277 21.531 16.6623C22.5868 17.1304 24.219 16.9968 25.755 16.9295C27.0032 16.8963 27.8992 16.6291 27.9955 15.8606C28.06 15.2588 27.419 14.3908 27.035 13.8895C26.0745 12.6539 25.627 12.2862 24.5385 11.1499C24.0583 10.6486 23.45 10.1141 23.45 9.51341C23.4183 9.1457 23.706 8.8122 23.962 8.4445C25.0822 6.70752 26.2025 5.47187 27.2265 3.66755C27.5142 3.1331 28.187 1.89744 27.931 1.29565C27.6432 0.627582 26.0427 0.827467 25.0505 0.827467C23.7705 0.827467 22.1065 0.72699 21.786 0.994217C21.1778 1.42819 20.9218 2.13047 20.634 2.79853C19.994 4.33562 19.1298 5.90478 18.2338 7.07416C17.9133 7.475 17.3061 8.30982 16.9538 8.1762L16.9549 8.17727Z" fill="#D56ED7"/>
</g>
</svg>
