<svg width="71" height="70" viewBox="0 0 71 70" fill="none" xmlns="http://www.w3.org/2000/svg">
<rect x="1" width="70" height="70" rx="10" fill="white"/>
<path d="M41.5804 11C39.2757 11 37.2578 11.9715 36 13.6136C34.7422 11.9715 32.7243 11 30.4196 11C28.5851 11.002 26.8262 11.7173 25.529 12.9889C24.2318 14.2605 23.5021 15.9845 23.5 17.7828C23.5 25.4409 35.0837 31.6396 35.577 31.8956C35.707 31.9641 35.8524 32 36 32C36.1476 32 36.293 31.9641 36.423 31.8956C36.9163 31.6396 48.5 25.4409 48.5 17.7828C48.4979 15.9845 47.7682 14.2605 46.471 12.9889C45.1738 11.7173 43.4149 11.002 41.5804 11ZM36 30.1233C33.9621 28.9592 25.2857 23.6566 25.2857 17.7828C25.2875 16.4487 25.8289 15.1697 26.7914 14.2263C27.7538 13.2829 29.0586 12.7521 30.4196 12.7504C32.5904 12.7504 34.4129 13.8838 35.1741 15.7042C35.2414 15.8648 35.3558 16.0021 35.5029 16.0987C35.6499 16.1953 35.823 16.2469 36 16.2469C36.177 16.2469 36.3501 16.1953 36.4971 16.0987C36.6442 16.0021 36.7586 15.8648 36.8259 15.7042C37.5871 13.8805 39.4096 12.7504 41.5804 12.7504C42.9414 12.7521 44.2462 13.2829 45.2086 14.2263C46.1711 15.1697 46.7125 16.4487 46.7143 17.7828C46.7143 23.6478 38.0357 28.9581 36 30.1233Z" fill="#9B9B9B"/>
<path d="M7.59473 55V47.5762H7.49219L2.46777 55H0.977539V45.1357H2.49512V52.5801H2.59766L7.62207 45.1357H9.1123V55H7.59473ZM13.4668 55.1367C11.7852 55.1367 10.6162 54.3096 10.4863 52.9834H11.9424C12.0928 53.6055 12.6396 53.9473 13.4668 53.9473C14.4102 53.9473 14.9365 53.5098 14.9365 52.874C14.9365 52.1562 14.4512 51.8281 13.4736 51.8281H12.4209V50.7412H13.4531C14.2803 50.7412 14.7109 50.4268 14.7109 49.7979C14.7109 49.2441 14.3145 48.8545 13.4736 48.8545C12.6807 48.8545 12.1475 49.1963 12.0518 49.7568H10.6367C10.7871 48.4785 11.8604 47.6787 13.4668 47.6787C15.21 47.6787 16.1533 48.458 16.1533 49.6543C16.1533 50.3857 15.7021 51.0078 15.0049 51.1855V51.2402C15.9209 51.4521 16.4062 52.0469 16.4062 52.8672C16.4062 54.2344 15.251 55.1367 13.4668 55.1367ZM20.9111 55.1367C18.6621 55.1367 17.4453 53.667 17.4453 50.8232C17.4453 46.8311 18.6074 45.2109 21.3418 45.1152L21.9844 45.0947C22.7568 45.0605 23.5361 44.917 23.8643 44.7393V45.9629C23.6797 46.1338 22.9482 46.3115 22.0664 46.3457L21.4375 46.3662C19.5166 46.4346 18.9082 47.2959 18.6416 49.3262H18.6963C19.1543 48.4785 20.0225 48.0137 21.1504 48.0137C23.0918 48.0137 24.3359 49.3672 24.3359 51.4863C24.3359 53.749 23.0303 55.1367 20.9111 55.1367ZM20.8975 53.8994C22.1143 53.8994 22.8252 53.0381 22.8252 51.5068C22.8252 50.0508 22.1143 49.2168 20.8975 49.2168C19.6738 49.2168 18.9561 50.0508 18.9561 51.5068C18.9561 53.0381 19.667 53.8994 20.8975 53.8994ZM29.3604 47.6924C31.1855 47.6924 32.3887 49.1279 32.3887 51.4043C32.3887 53.6807 31.1924 55.123 29.3877 55.123C28.3555 55.123 27.5352 54.6172 27.125 53.8174H27.0908V57.3789H25.6143V47.8086H27.043V49.0459H27.0703C27.4941 48.2188 28.3213 47.6924 29.3604 47.6924ZM28.9707 53.8721C30.1396 53.8721 30.8711 52.915 30.8711 51.4043C30.8711 49.9004 30.1396 48.9365 28.9707 48.9365C27.8428 48.9365 27.084 49.9209 27.084 51.4043C27.084 52.9014 27.8359 53.8721 28.9707 53.8721ZM36.1826 53.9541C37.2148 53.9541 38.0215 53.2432 38.0215 52.3066V51.7393L36.251 51.8486C35.3691 51.9102 34.8701 52.2998 34.8701 52.915C34.8701 53.5439 35.3896 53.9541 36.1826 53.9541ZM35.7725 55.123C34.3643 55.123 33.3799 54.248 33.3799 52.9561C33.3799 51.6982 34.3438 50.9258 36.0527 50.8301L38.0215 50.7139V50.1602C38.0215 49.3604 37.4814 48.8818 36.5791 48.8818C35.7246 48.8818 35.1914 49.292 35.0615 49.9346H33.667C33.749 48.6357 34.8564 47.6787 36.6338 47.6787C38.377 47.6787 39.4912 48.6016 39.4912 50.0439V55H38.0762V53.8174H38.042C37.625 54.6172 36.7158 55.123 35.7725 55.123ZM45.7666 55V51.8691H42.5127V55H41.043V47.8086H42.5127V50.707H45.7666V47.8086H47.2363V55H45.7666ZM53.5596 55V51.8691H50.3057V55H48.8359V47.8086H50.3057V50.707H53.5596V47.8086H55.0293V55H53.5596ZM59.7256 55.1367C57.668 55.1367 56.3145 53.7217 56.3145 51.4043C56.3145 49.0938 57.6748 47.6787 59.7256 47.6787C61.7764 47.6787 63.1367 49.0938 63.1367 51.4043C63.1367 53.7217 61.7832 55.1367 59.7256 55.1367ZM59.7256 53.9199C60.8877 53.9199 61.6328 53.0039 61.6328 51.4043C61.6328 49.8115 60.8809 48.8955 59.7256 48.8955C58.5703 48.8955 57.8184 49.8115 57.8184 51.4043C57.8184 53.0039 58.5703 53.9199 59.7256 53.9199ZM67.4229 48.8682C66.3906 48.8682 65.666 49.6543 65.5908 50.7412H69.1865C69.1523 49.6406 68.4551 48.8682 67.4229 48.8682ZM69.1797 52.8877H70.5811C70.376 54.2002 69.1318 55.1367 67.4844 55.1367C65.3721 55.1367 64.0938 53.708 64.0938 51.4385C64.0938 49.1826 65.3926 47.6787 67.4229 47.6787C69.4189 47.6787 70.6631 49.0869 70.6631 51.2676V51.7734H65.584V51.8623C65.584 53.1133 66.3359 53.9404 67.5186 53.9404C68.3594 53.9404 68.9814 53.5166 69.1797 52.8877Z" fill="#9B9B9B"/>
</svg>
