<svg width="34" height="34" viewBox="0 0 34 34" fill="none" xmlns="http://www.w3.org/2000/svg">
<g id="&#208;&#186;&#208;&#189;&#208;&#190;&#208;&#191;&#208;&#186;&#208;&#184;/&#208;&#180;&#208;&#190;&#208;&#177;&#208;&#176;&#208;&#178;&#208;&#184;&#209;&#130;&#209;&#140; &#208;&#178; &#208;&#184;&#208;&#183;&#208;&#177;&#209;&#128;&#208;&#176;&#208;&#189;&#208;&#189;&#208;&#190;&#208;&#181; &#208;&#191;&#208;&#186;">
<g id="Group 2073">
<circle id="Ellipse 90" cx="17" cy="17" r="16.5" fill="white" stroke="#D56ED7"/>
<path id="Vector" d="M21.4643 9C19.6205 9 18.0063 9.78644 17 11.1158C15.9938 9.78644 14.3795 9 12.5357 9C11.0681 9.00164 9.66099 9.58067 8.6232 10.6101C7.58541 11.6394 7.00165 13.0351 7 14.4909C7 20.6903 16.267 25.7082 16.6616 25.9154C16.7656 25.9709 16.8819 26 17 26C17.1181 26 17.2344 25.9709 17.3384 25.9154C17.733 25.7082 27 20.6903 27 14.4909C26.9983 13.0351 26.4146 11.6394 25.3768 10.6101C24.339 9.58067 22.9319 9.00164 21.4643 9ZM17 24.4807C15.3696 23.5384 8.42857 19.2458 8.42857 14.4909C8.42999 13.4109 8.86316 12.3755 9.63309 11.6118C10.403 10.8481 11.4469 10.4184 12.5357 10.417C14.2723 10.417 15.7304 11.3345 16.3393 12.8082C16.3931 12.9381 16.4846 13.0493 16.6023 13.1275C16.7199 13.2057 16.8584 13.2475 17 13.2475C17.1416 13.2475 17.2801 13.2057 17.3977 13.1275C17.5154 13.0493 17.6069 12.9381 17.6607 12.8082C18.2696 11.3319 19.7277 10.417 21.4643 10.417C22.5531 10.4184 23.597 10.8481 24.3669 11.6118C25.1368 12.3755 25.57 13.4109 25.5714 14.4909C25.5714 19.2387 18.6286 23.5375 17 24.4807Z" fill="#D56ED7"/>
</g>
</g>
</svg>
