<svg width="29" height="24" viewBox="0 0 29 24" fill="none" xmlns="http://www.w3.org/2000/svg">
<g id="&#208;&#184;&#208;&#186;&#208;&#190;&#208;&#189;&#208;&#186;&#208;&#176;">
<path id="Vector" d="M20.75 0C18.1688 0 15.9088 1.11026 14.5 2.98695C13.0912 1.11026 10.8312 0 8.25 0C6.19528 0.00231647 4.22539 0.819769 2.77248 2.27302C1.31958 3.72626 0.502316 5.69663 0.5 7.75183C0.5 16.5039 13.4737 23.5881 14.0262 23.8806C14.1719 23.959 14.3346 24 14.5 24C14.6654 24 14.8281 23.959 14.9737 23.8806C15.5262 23.5881 28.5 16.5039 28.5 7.75183C28.4977 5.69663 27.6804 3.72626 26.2275 2.27302C24.7746 0.819769 22.8047 0.00231647 20.75 0ZM14.5 21.8552C12.2175 20.5248 2.5 14.4647 2.5 7.75183C2.50198 6.22708 3.10842 4.76536 4.18633 3.6872C5.26423 2.60904 6.72561 2.00246 8.25 2.00047C10.6813 2.00047 12.7225 3.29578 13.575 5.37627C13.6503 5.55972 13.7785 5.71663 13.9432 5.82706C14.1079 5.93749 14.3017 5.99645 14.5 5.99645C14.6983 5.99645 14.8921 5.93749 15.0568 5.82706C15.2215 5.71663 15.3497 5.55972 15.425 5.37627C16.2775 3.29203 18.3187 2.00047 20.75 2.00047C22.2744 2.00246 23.7358 2.60904 24.8137 3.6872C25.8916 4.76536 26.498 6.22708 26.5 7.75183C26.5 14.4547 16.78 20.5236 14.5 21.8552Z" fill="#9B9B9B"/>
</g>
</svg>
