<svg width="33" height="33" viewBox="0 0 33 33" fill="none" xmlns="http://www.w3.org/2000/svg">
<path id="Vector" fill-rule="evenodd" clip-rule="evenodd" d="M8.14716 2.26888C11.0675 0.543497 14.5355 -0.236245 17.9038 0.0623785C21.7202 0.377592 25.4205 2.08638 28.1251 4.79058C30.6804 7.27911 32.3563 10.6469 32.8375 14.164C33.2855 17.3328 32.8043 20.6342 31.4271 23.5209C29.7346 27.1542 26.6483 30.1238 22.9647 31.6833C19.8618 33.0271 16.3275 33.3423 13.0255 32.6289C9.88942 31.9487 6.95246 30.3395 4.71241 28.0334C1.82523 25.1468 0.132744 21.1319 0 17.0507V15.7733C0.082965 14.6286 0.232302 13.4673 0.530976 12.3557C1.57633 8.17498 4.39714 4.45878 8.14716 2.26888ZM12.8098 7.57774C11.3994 8.27453 10.2877 9.58515 9.88942 11.1114C9.44141 12.7705 9.54097 14.612 10.2711 16.188C11.0012 17.6978 12.3618 18.7761 13.6726 19.7715C12.1461 21.978 10.6693 24.2177 9.12615 26.4242C10.4038 26.4242 11.6981 26.4574 12.9757 26.4076C14.5521 23.9523 16.145 21.4969 17.7213 19.0416C16.8585 18.3945 15.9625 17.7973 15.0996 17.1503C14.0874 16.3871 13.2412 15.3088 13.0587 14.0147C12.8264 12.6875 12.9591 11.0949 14.0874 10.199C15.4315 9.05426 17.2899 9.26994 18.9326 9.25335C18.9326 14.977 18.9326 20.7006 18.9326 26.4242C20.0443 26.4242 21.1561 26.4242 22.2678 26.4242C22.2678 19.8213 22.2678 13.2184 22.2678 6.6321C20.6583 6.61551 19.0322 6.6321 17.4226 6.6321C15.8463 6.61551 14.2202 6.83118 12.8098 7.57774Z" fill="#FC3F1D"/>
</svg>
