<svg width="231" height="53" viewBox="0 0 231 53" fill="none" xmlns="http://www.w3.org/2000/svg">
<g id="&#208;&#187;&#208;&#190;&#208;&#179;&#208;&#190;">
<g id="&#208;&#187;&#208;&#190;&#208;&#179;&#208;&#190; &#208;&#184; &#208;&#190;&#208;&#191;&#208;&#184;&#209;&#129;&#208;&#176;&#208;&#189;&#208;&#184;&#208;&#181;">
<g id="&#208;&#187;&#208;&#190;&#208;&#179;&#208;&#190;_2">
<g id="Group 117">
<g id="Group 81">
<g id="&#208;&#177;&#208;&#190;&#208;&#187;&#209;&#140;&#209;&#136;&#208;&#190;&#208;&#181; &#208;&#187;&#208;&#190;&#208;&#179;&#208;&#190;">
<g id="g12">
<path id="path14" d="M32.3476 37.5025C32.3458 37.5037 32.3439 37.5043 32.3421 37.505C32.3218 37.513 32.3014 37.521 32.2811 37.5289C29.4065 38.7325 28.5817 41.535 28.3976 42.3579C28.3834 42.4206 28.2953 42.4206 28.2805 42.3579C28.0193 41.2534 28.2429 38.484 28.7622 37.267C29.3233 35.9529 31.2654 34.0138 31.7403 33.4536C32.1302 32.9929 32.8841 31.0219 33.141 30.3318C33.1638 30.271 33.2543 30.2839 33.2573 30.3484C33.314 31.4062 32.8466 33.4302 32.7209 33.9529C32.7085 34.0021 32.7609 34.0433 32.8065 34.0206C37.7622 31.5588 40.3892 27.4635 40.9922 26.4328C41.0248 26.3774 41.1098 26.4057 41.1037 26.4697C40.3005 34.9505 33.9953 36.6282 32.3476 37.5025ZM35.6466 31.1227C35.6466 31.1258 35.6466 31.1276 35.646 31.1301C35.6417 31.1793 35.5628 31.6934 34.3735 32.2469C34.3303 32.3115 34.9562 30.4801 35.1286 29.8546C35.25 29.4161 35.3713 28.723 35.4698 28.3337C35.4871 28.2655 35.5869 28.2778 35.5881 28.3473L35.6466 31.1227ZM37.2423 29.7906C37.2429 29.8042 37.2386 29.8177 37.2306 29.8288C37.1284 29.9628 36.4484 30.8392 35.97 31.0182C35.9109 31.0581 36.6473 29.3823 37.0372 27.4623C37.0514 27.3922 37.153 27.4002 37.1561 27.4715L37.2423 29.7906ZM27.6024 32.6959V26.8614C27.6024 26.8454 27.6085 26.8307 27.6203 26.819L35.2401 19.2109C35.2635 19.1875 35.3017 19.1875 35.3251 19.2109L38.0233 21.9052C38.1699 22.0515 38.1699 22.2889 38.0233 22.4353L27.7053 32.7383C27.6671 32.7758 27.6024 32.7494 27.6024 32.6959V32.6959ZM26.4918 24.9808L19.2766 17.7773C19.2532 17.7533 19.2532 17.7158 19.2766 17.6918L26.2756 10.7043C26.4216 10.5579 26.6593 10.5579 26.8053 10.7043L28.1672 12.064C28.1912 12.0874 28.1912 12.1255 28.1672 12.1489L22.6705 17.6371C22.6471 17.6611 22.6471 17.6986 22.6705 17.722L26.5374 21.5835C26.5614 21.6069 26.599 21.6069 26.6224 21.5835L30.429 17.7829C30.4523 17.7595 30.4523 17.7214 30.429 17.698L28.5756 15.8481C28.5522 15.8247 28.514 15.8247 28.4906 15.8481L27.6756 16.6617C27.6517 16.6851 27.6517 16.7232 27.6756 16.7466L28.5676 17.6371C28.591 17.6611 28.591 17.6986 28.5676 17.722L26.5768 19.7096C26.5534 19.733 26.5152 19.733 26.4918 19.7096L24.5781 17.7982C24.5541 17.7749 24.5541 17.7367 24.5781 17.7134L29.1588 13.139C29.1829 13.1157 29.2204 13.1157 29.2445 13.139L33.7982 17.6863C33.8216 17.7097 33.8216 17.7478 33.7982 17.7712L33.4317 18.1371L26.5768 24.9808C26.5534 25.0041 26.5152 25.0041 26.4918 24.9808V24.9808ZM25.5729 32.7894C25.5729 32.8429 25.5081 32.8699 25.47 32.8318L15.0143 22.3923C14.8917 22.2699 14.8917 22.0706 15.0149 21.9476L17.7725 19.1943C17.7959 19.1709 17.8341 19.1709 17.8575 19.1943L25.555 26.8799C25.5667 26.8916 25.5729 26.9063 25.5729 26.9223V32.7894ZM17.4344 31.1227L17.4929 28.3473C17.4941 28.2778 17.5939 28.2655 17.6111 28.3337C17.7103 28.723 17.831 29.4161 17.9523 29.8546C18.1248 30.4801 18.7513 32.3115 18.7075 32.2469C17.5181 31.6934 17.4399 31.1793 17.435 31.1301C17.4344 31.1276 17.4344 31.1258 17.4344 31.1227V31.1227ZM15.8384 29.7906L15.9253 27.4715C15.9278 27.4002 16.0294 27.3922 16.0436 27.4623C16.4334 29.3823 17.1701 31.0581 17.111 31.0182C16.633 30.8392 15.9524 29.9628 15.8508 29.8288C15.8421 29.8177 15.8378 29.8042 15.8384 29.7906ZM14.9096 28.8632L14.9256 27.7083C14.9262 27.6394 15.0235 27.6259 15.0433 27.6917C15.2613 28.4407 15.6826 29.691 15.6647 29.7255C15.645 29.7654 15.0248 29.0237 14.9238 28.902C14.9145 28.8909 14.9096 28.8774 14.9096 28.8632V28.8632ZM24.8005 42.3579C24.7856 42.4206 24.6976 42.4206 24.6834 42.3579C24.4993 41.535 23.6745 38.7325 20.7998 37.5289C20.7796 37.521 20.7592 37.513 20.7395 37.505C20.737 37.5043 20.7358 37.5037 20.734 37.5025C19.0857 36.6282 12.7803 34.9505 11.9771 26.4697C11.9709 26.4057 12.0565 26.3774 12.0886 26.4328C12.6916 27.4635 15.3186 31.5588 20.2745 34.0206C20.32 34.0433 20.3724 34.0021 20.3601 33.9529C20.2345 33.4302 19.7669 31.4062 19.8236 30.3484C19.8272 30.2839 19.9172 30.271 19.94 30.3318C20.1968 31.0219 20.9508 32.9929 21.3407 33.4536C21.8156 34.0138 23.7576 35.9529 24.3188 37.267C24.8386 38.484 25.0616 41.2534 24.8005 42.3579V42.3579ZM38.1558 27.7083L38.1712 28.8632C38.1712 28.8774 38.1662 28.8909 38.157 28.902C38.056 29.0237 37.4357 29.7654 37.416 29.7255C37.3988 29.691 37.8195 28.4407 38.0381 27.6917C38.0572 27.6259 38.1545 27.6394 38.1558 27.7083V27.7083ZM26.5405 8.51304C16.5917 8.51304 8.52588 16.5664 8.52588 26.4998C8.52588 36.4338 16.5917 44.4863 26.5405 44.4863C36.4896 44.4863 44.5548 36.4338 44.5548 26.4998C44.5548 16.5664 36.4896 8.51304 26.5405 8.51304Z" fill="#D56ED7"/>
<path id="path20" d="M26.5409 0.73798C12.3137 0.73798 0.73912 12.2948 0.73912 26.5002C0.73912 40.7053 12.3137 52.262 26.5409 52.262C40.7681 52.262 52.3428 40.7053 52.3428 26.5002C52.3428 12.2948 40.7681 0.73798 26.5409 0.73798ZM26.5409 53C22.9581 53 19.4822 52.2993 16.2099 50.9174C13.0494 49.5826 10.2111 47.6719 7.7737 45.2384C5.33632 42.8047 3.42268 39.9708 2.08592 36.8154C0.701796 33.548 0 30.0776 0 26.5002C0 22.9229 0.701796 19.4519 2.08592 16.1851C3.42268 13.029 5.33632 10.1952 7.7737 7.76171C10.2111 5.32822 13.0494 3.41746 16.2099 2.08295C19.4822 0.701082 22.9581 -2.75474e-07 26.5409 -2.75474e-07C30.1238 -2.75474e-07 33.5996 0.701082 36.8717 2.08295C40.0327 3.41746 42.8709 5.32822 45.3082 7.76171C47.7454 10.1952 49.6591 13.029 50.9957 16.1851C52.3803 19.4519 53.0819 22.9229 53.0819 26.5002C53.0819 30.0776 52.3803 33.548 50.9957 36.8154C49.6591 39.9708 47.7454 42.8047 45.3082 45.2384C42.8709 47.6719 40.0327 49.5826 36.8717 50.9174C33.5996 52.2993 30.1238 53 26.5409 53" fill="#D56ED7"/>
<path id="path22" d="M26.5423 7.9705C16.3094 7.9705 7.98431 16.2828 7.98431 26.5003C7.98431 36.7172 16.3094 45.0294 26.5423 45.0294C36.7753 45.0294 45.1005 36.7172 45.1005 26.5003C45.1005 16.2828 36.7753 7.9705 26.5423 7.9705ZM26.5423 45.3984C21.4865 45.3984 16.7334 43.4327 13.1585 39.8632C9.58356 36.2935 7.61475 31.5482 7.61475 26.5003C7.61475 21.4524 9.58356 16.7065 13.1585 13.1371C16.7334 9.56764 21.4865 7.6015 26.5423 7.6015C31.5979 7.6015 36.351 9.56764 39.9259 13.1371C43.5009 16.7065 45.47 21.4524 45.47 26.5003C45.47 31.5482 43.5009 36.2935 39.9259 39.8632C36.351 43.4327 31.5979 45.3984 26.5423 45.3984Z" fill="#D56ED7"/>
<path id="path24" d="M7.9449 36.6597C7.9449 37.3292 7.40145 37.8718 6.731 37.8718C6.0606 37.8718 5.51709 37.3292 5.51709 36.6597C5.51709 35.9906 6.0606 35.4476 6.731 35.4476C7.40145 35.4476 7.9449 35.9906 7.9449 36.6597Z" fill="#D56ED7"/>
<path id="path26" d="M47.5654 36.6597C47.5654 37.3292 47.0215 37.8718 46.3514 37.8718C45.6806 37.8718 45.1373 37.3292 45.1373 36.6597C45.1373 35.9906 45.6806 35.4476 46.3514 35.4476C47.0215 35.4476 47.5654 35.9906 47.5654 36.6597Z" fill="#D56ED7"/>
<path id="path28" d="M5.58887 27.4977L5.57273 26.8034C5.56546 26.4909 5.27837 26.2462 4.97256 26.3132C4.74453 26.363 4.6344 26.5549 4.6421 26.8882L4.65676 27.5192C4.65713 27.5358 4.67062 27.5487 4.68688 27.5481L5.56005 27.5278C5.57631 27.5278 5.58918 27.5143 5.58887 27.4977V27.4977ZM6.73804 29.029L1.66671 29.1465C1.65045 29.1465 1.6369 29.1336 1.6366 29.1176L1.5503 25.3975C1.54993 25.3815 1.5628 25.368 1.57906 25.3673L2.59507 25.344C2.61133 25.3434 2.62482 25.3563 2.62519 25.3729L2.67606 27.5653C2.67643 27.5813 2.68992 27.5942 2.70619 27.5942L3.57559 27.5739C3.59185 27.5733 3.60473 27.5604 3.60436 27.5438L3.58526 26.7216C3.5743 26.2462 3.61828 25.8741 3.71732 25.6053C3.81636 25.336 3.98249 25.1201 4.21562 24.9571C4.44876 24.7942 4.73443 24.7087 5.07271 24.7007C5.35333 24.6945 5.62792 24.7517 5.89647 24.8735C6.16503 24.9947 6.36552 25.2081 6.49788 25.5125C6.63037 25.8175 6.70022 26.1275 6.70749 26.443L6.76687 28.9989C6.76718 29.0149 6.7543 29.0284 6.73804 29.029" fill="#D56ED7"/>
<path id="path30" d="M5.50057 20.1828L5.73482 19.4688C5.74086 19.4504 5.72761 19.4307 5.70809 19.4301L4.30854 19.368C4.27872 19.3667 4.2661 19.4055 4.29086 19.4221L5.45623 20.1982C5.47243 20.2087 5.49448 20.2013 5.50057 20.1828V20.1828ZM7.92679 19.5555L6.91984 19.518C6.90672 19.5174 6.89483 19.526 6.89076 19.5383L6.47666 20.8009C6.4726 20.8132 6.47716 20.8267 6.48769 20.8341L7.31718 21.4159C7.32778 21.4233 7.33228 21.4368 7.32827 21.4491L6.94953 22.6041C6.94337 22.6225 6.9207 22.6299 6.9045 22.6188L2.57108 19.5568C2.56048 19.5494 2.55605 19.5358 2.56005 19.5235L3.06482 17.9842C3.06882 17.9719 3.08034 17.9639 3.09321 17.9639L8.40907 18.0303C8.42896 18.031 8.44295 18.0506 8.43673 18.0691L7.95586 19.5352C7.95179 19.5475 7.9399 19.5561 7.92679 19.5555" fill="#D56ED7"/>
<path id="path32" d="M8.12229 15.3098L8.84073 14.1308C8.84874 14.1179 8.8658 14.1136 8.87947 14.1204C9.09579 14.2311 9.27817 14.2772 9.42661 14.26C9.58066 14.2421 9.72301 14.1474 9.85371 13.9764C10.1197 13.6277 10.0952 13.3338 9.78029 13.0945C9.5033 12.8836 9.2576 12.918 9.04337 13.1985L8.84467 13.4586C8.83481 13.4715 8.81633 13.474 8.80334 13.4642L8.13276 12.9537C8.11983 12.9439 8.1173 12.9254 8.12715 12.9125L8.30079 12.6856C8.49075 12.4365 8.44726 12.2065 8.17021 11.9956C7.90714 11.7957 7.64869 11.8615 7.39492 12.1936C7.28097 12.343 7.22116 12.4863 7.21555 12.6241C7.21013 12.7563 7.29464 12.9174 7.46902 13.1081C7.47986 13.1198 7.47967 13.1382 7.46803 13.1493L6.5868 13.9838C6.57528 13.9949 6.5568 13.9943 6.5454 13.9838C5.80387 13.2692 5.80356 12.4267 6.54442 11.4568C6.9106 10.9771 7.30955 10.6469 7.74108 10.4654C8.17261 10.284 8.57575 10.3363 8.95043 10.6216C9.32406 10.9058 9.44934 11.308 9.32622 11.8277C9.32012 11.8535 9.34765 11.8732 9.37032 11.8596C9.91198 11.5275 10.3969 11.5245 10.8249 11.8504C11.1976 12.1339 11.3874 12.5306 11.3943 13.0392C11.4013 13.5478 11.192 14.081 10.7665 14.6382C10.3668 15.1615 9.93397 15.4918 9.46794 15.6296C9.00962 15.7649 8.56367 15.672 8.13005 15.3497C8.11779 15.3405 8.11434 15.3233 8.12229 15.3098" fill="#D56ED7"/>
<path id="path34" d="M13.9183 8.55477L14.5444 8.1378C14.5606 8.12735 14.562 8.10398 14.5472 8.09107L13.4853 7.17902C13.4626 7.15934 13.4287 7.1821 13.438 7.21039L13.8739 8.54001C13.88 8.55846 13.9021 8.56584 13.9183 8.55477V8.55477ZM16.2141 9.55844L15.4455 8.90778C15.4355 8.89978 15.421 8.89855 15.4101 8.90593L14.3031 9.64331C14.2923 9.65069 14.2875 9.66422 14.2913 9.67652L14.5836 10.6451C14.5874 10.6574 14.5826 10.671 14.5718 10.6783L13.5593 11.3524C13.5428 11.3635 13.5204 11.3555 13.5148 11.3364L12.0022 6.2553C11.9985 6.243 12.0033 6.23008 12.0141 6.2227L13.3635 5.32359C13.3741 5.31682 13.3882 5.31744 13.3983 5.32543L17.537 8.65686C17.5525 8.66978 17.5514 8.69376 17.5348 8.70421L16.2496 9.56091C16.2386 9.56829 16.2241 9.56705 16.2141 9.55844" fill="#D56ED7"/>
<path id="path36" d="M23.5643 6.77803L23.3487 1.7449C23.3477 1.72153 23.3661 1.70124 23.3898 1.70001L24.8326 1.63851C24.8563 1.63728 24.8764 1.65573 24.8775 1.67972L25.0412 5.5056C25.0423 5.52897 25.0624 5.54742 25.0861 5.5462L26.1044 5.50315C26.1281 5.50192 26.1465 5.48162 26.1456 5.45825L25.9817 1.63236C25.9807 1.60899 25.9991 1.58869 26.0228 1.58808L27.4656 1.52597C27.4893 1.52535 27.5094 1.5438 27.5104 1.56717L27.6743 5.39368C27.6753 5.41705 27.6948 5.43549 27.7183 5.43488L28.4431 5.41643L27.3181 7.26818C27.2961 7.30447 27.2405 7.29032 27.2384 7.24789L27.2116 6.70792C27.2104 6.68455 27.1904 6.6661 27.1668 6.66733L23.6091 6.81924C23.5854 6.82047 23.5653 6.80201 23.5643 6.77803" fill="#D56ED7"/>
<path id="path38" d="M32.8426 4.39215C32.8377 4.40753 32.8463 4.42413 32.8619 4.42905L33.53 4.63692C33.7046 4.69165 33.8417 4.6855 33.9411 4.6197C34.0405 4.5539 34.1059 4.47025 34.1372 4.37001C34.2223 4.09757 34.0974 3.90938 33.7624 3.80544L33.1194 3.60496C33.1039 3.60004 33.0873 3.60865 33.0825 3.62402L32.8426 4.39215ZM32.2402 6.32016C32.2353 6.33554 32.244 6.35214 32.2595 6.35706L32.9635 6.576C33.1454 6.63258 33.2927 6.6295 33.4057 6.56616C33.5186 6.50343 33.5925 6.41548 33.6277 6.30356C33.6628 6.19101 33.6538 6.07478 33.6007 5.95485C33.5476 5.83493 33.411 5.74022 33.191 5.67195L32.5372 5.46839C32.5217 5.46347 32.5051 5.47208 32.5003 5.48746L32.2402 6.32016ZM30.5145 6.97759L32.0253 2.14249C32.0301 2.12712 32.0467 2.11851 32.0622 2.12343L34.5211 2.88971C35.0379 3.05023 35.374 3.29807 35.5296 3.63201C35.6851 3.96657 35.7106 4.30052 35.6061 4.63507C35.53 4.87861 35.3923 5.07787 35.1931 5.23162C35.017 5.36815 34.8031 5.4401 34.5513 5.44748C34.5229 5.4481 34.5121 5.48499 34.5358 5.50037C35.0557 5.84538 35.2257 6.30602 35.0456 6.88288C34.9321 7.24573 34.7189 7.53539 34.406 7.75125C34.0931 7.9665 33.5706 7.96035 32.8384 7.7328L30.5338 7.01449C30.5183 7.00957 30.5097 6.99296 30.5145 6.97759" fill="#D56ED7"/>
<path id="path40" d="M40.6399 10.8152L39.9482 11.7537C39.9389 11.7666 39.9204 11.7697 39.9069 11.7598L36.845 9.50955C36.8321 9.49971 36.8296 9.48126 36.8389 9.46835L39.8459 5.38908C39.8558 5.37616 39.8742 5.3737 39.8872 5.38293L42.949 7.6332C42.9626 7.64304 42.9651 7.66149 42.9552 7.67441L42.2881 8.57968C42.2789 8.59259 42.2604 8.59505 42.2475 8.58583L40.4298 7.25006C40.4163 7.24022 40.3978 7.24329 40.3886 7.25621L39.982 7.80724C39.9722 7.82016 39.9753 7.83861 39.9882 7.84845L41.4486 8.92161C41.4615 8.93145 41.4646 8.94991 41.4548 8.96282L40.8148 9.8312C40.8049 9.84473 40.7865 9.84719 40.7735 9.83735L39.3131 8.76418C39.3002 8.75495 39.2817 8.75741 39.2718 8.77033L38.8099 9.39701C38.8 9.41054 38.8031 9.42899 38.816 9.43821L40.6337 10.7746C40.6466 10.7838 40.6497 10.8023 40.6399 10.8152" fill="#D56ED7"/>
<path id="path42" d="M46.0171 13.0223L42.93 15.3076C42.917 15.3175 42.8985 15.315 42.8887 15.3015L42.035 14.152C42.0251 14.1391 42.0282 14.1207 42.0411 14.1108L45.1283 11.8255C45.1412 11.8157 45.1443 11.7972 45.1344 11.7843L44.5357 10.978C44.5259 10.9651 44.529 10.9467 44.5419 10.9368L45.4824 10.2407C45.4954 10.2314 45.5138 10.2339 45.5231 10.2468L47.6444 13.1035C47.6543 13.1164 47.6518 13.1348 47.6382 13.1447L46.6983 13.8402C46.6854 13.8501 46.6669 13.8476 46.657 13.8347L46.0583 13.0284C46.0485 13.0155 46.0306 13.0124 46.0171 13.0223" fill="#D56ED7"/>
<path id="path44" d="M46.385 19.9531C46.4688 20.2046 46.6382 20.3498 46.895 20.3879C47.1519 20.4254 47.5732 20.3479 48.1583 20.1554C49.0059 19.8762 49.3545 19.5097 49.2042 19.0558C49.0422 18.5663 48.4786 18.4808 47.5122 18.7988C46.6055 19.0976 46.2298 19.4826 46.385 19.9531V19.9531ZM45.2806 20.3246C45.0546 19.6401 45.0977 19.0079 45.4093 18.4267C45.7216 17.8455 46.2581 17.4292 47.02 17.1782C47.7481 16.9384 48.4182 16.9464 49.0293 17.2022C49.6403 17.4581 50.0665 17.9519 50.3086 18.6837C50.5322 19.3609 50.4909 19.9869 50.1848 20.5607C49.878 21.1345 49.3514 21.5447 48.6043 21.7913C47.8306 22.0459 47.1395 22.0355 46.531 21.7587C45.9224 21.4826 45.5054 21.0041 45.2806 20.3246Z" fill="#D56ED7"/>
<path id="path46" d="M49.55 26.6604C49.534 26.6598 49.5204 26.6727 49.5198 26.6893L49.4976 27.3874C49.4921 27.57 49.534 27.7004 49.6245 27.7785C49.7151 27.856 49.8124 27.8966 49.9177 27.9003C50.2035 27.9089 50.3519 27.7385 50.363 27.3886L50.384 26.7164C50.3846 26.6998 50.3716 26.6863 50.3556 26.6857L49.55 26.6604ZM47.5284 26.5971C47.5124 26.5965 47.4989 26.6094 47.4983 26.6254L47.4749 27.3615C47.4687 27.5516 47.5118 27.6924 47.6024 27.784C47.6935 27.8757 47.7982 27.9236 47.9159 27.9273C48.0335 27.931 48.1432 27.8917 48.2448 27.808C48.3464 27.725 48.4012 27.5682 48.4086 27.3382L48.4302 26.6549C48.4302 26.6383 48.4179 26.6248 48.4012 26.6248L47.5284 26.5971ZM46.4321 25.1131L51.5019 25.2724C51.5185 25.273 51.5309 25.2865 51.5302 25.3025L51.4496 27.8732C51.4323 28.4132 51.2832 28.8031 51.003 29.0423C50.7221 29.2809 50.4061 29.3953 50.055 29.3843C49.8 29.3763 49.5709 29.2969 49.3689 29.1469C49.1903 29.014 49.0634 28.8271 48.9895 28.5866C48.9808 28.5595 48.9427 28.5589 48.9334 28.586C48.74 29.1788 48.3409 29.4654 47.7366 29.4464C47.3554 29.4347 47.0191 29.3068 46.7271 29.0638C46.4351 28.8203 46.3015 28.316 46.3255 27.551L46.4013 25.1414C46.4019 25.1254 46.4154 25.1125 46.4321 25.1131" fill="#D56ED7"/>
<path id="path48" d="M12.4489 46.0031L11.7024 46.8368L9.01196 44.6433L9.67521 43.8323L10.6206 43.9014C10.758 43.9129 11.0285 43.9174 11.4322 43.915C11.8358 43.9125 12.1179 43.8879 12.2786 43.8409C12.4393 43.794 12.5676 43.712 12.6634 43.5949C12.7549 43.483 12.7965 43.3669 12.788 43.2467C12.7796 43.1265 12.7235 43.024 12.6197 42.9394C12.3602 42.7278 12.0486 42.8125 11.6852 43.1935L10.9342 42.2928C11.3391 41.9312 11.754 41.755 12.1791 41.7644C12.6041 41.7736 12.9934 41.9224 13.347 42.2106C13.7299 42.5228 13.9586 42.8801 14.0334 43.2826C14.1081 43.685 14.0061 44.0568 13.7273 44.3977C13.5414 44.625 13.2987 44.7873 12.9992 44.8847C12.6996 44.9821 12.0574 44.9809 11.0726 44.8811L12.4489 46.0031" fill="#D56ED7"/>
<path id="path50" d="M16.3259 47.1908L16.9155 45.9653L15.5479 46.8176L16.3259 47.1908ZM17.6064 48.9037L17.0283 48.6265L16.5945 49.5283L15.4625 48.9853L15.8964 48.0836L14.2166 47.2779L14.646 46.3851L17.3345 44.7557L18.5988 45.3621L17.4579 47.7338L18.0359 48.011L17.6064 48.9037" fill="#D56ED7"/>
<path id="path52" d="M25.2779 51.4207L25.3714 49.8195C25.0946 50.0127 24.7663 50.0983 24.3861 50.0761C23.9594 50.0513 23.6144 49.9143 23.3513 49.6651C23.0881 49.4161 22.972 49.0274 23.0028 48.4992L23.1058 46.7348L24.5028 46.8161L24.3983 48.607C24.3888 48.7692 24.4082 48.886 24.4565 48.9578C24.5046 49.0297 24.6144 49.0706 24.7856 49.0805C24.9922 49.0926 25.2038 49.0593 25.4204 48.9805L25.5432 46.8766L26.9401 46.9579L26.6749 51.502L25.2779 51.4207" fill="#D56ED7"/>
<path id="path54" d="M30.4116 49.1661L31.1359 49.0267L30.5235 47.7998L30.4116 49.1661ZM31.9885 50.7882L31.5656 49.9561L30.3663 50.1868L30.2675 51.1194L29.152 51.334L29.6714 46.5985L31.1242 46.3189L33.3907 50.5184L31.9885 50.7882" fill="#D56ED7"/>
<path id="path56" d="M37.084 47.0587L38.2697 46.574C38.4575 47.1028 38.4575 47.5779 38.2691 47.999C38.0806 48.4203 37.7541 48.7422 37.2909 48.965C36.7329 49.233 36.1939 49.2651 35.6732 49.0614C35.1524 48.8577 34.7356 48.4313 34.4228 47.7822C34.1128 47.1392 34.0253 46.5423 34.1601 45.9915C34.2949 45.4406 34.6532 45.0255 35.235 44.7458C35.7787 44.4846 36.2691 44.4341 36.7058 44.5943C37.1425 44.7545 37.4997 45.0739 37.7769 45.5524L36.6306 46.1808C36.4988 45.9064 36.3504 45.7334 36.1859 45.6618C36.022 45.5902 35.8686 45.5886 35.7262 45.6571C35.3289 45.848 35.3224 46.3421 35.7067 47.1394C35.9221 47.5862 36.12 47.8648 36.3005 47.9754C36.481 48.086 36.6645 48.0964 36.8512 48.0068C37.1844 47.8467 37.262 47.5307 37.084 47.0587" fill="#D56ED7"/>
<path id="path58" d="M40.809 44.4298L41.3726 43.9548L40.2374 43.1834L40.809 44.4298ZM42.979 45.0752L42.2023 44.5557L41.2691 45.3424L41.6399 46.2041L40.7715 46.9358L38.9058 42.5513L40.0366 41.5983L44.0699 44.1554L42.979 45.0752" fill="#D56ED7"/>
</g>
</g>
<g id="&#208;&#145;&#208;&#144;&#208;&#151;&#208;&#144; &#208;&#166;&#208;&#146;&#208;&#149;&#208;&#162;&#208;&#158;&#208;&#146; 24.">
<path d="M57.1689 31.1279V19.0827H64.6796V20.6471H58.9863V23.9407H61.68C62.574 23.9407 63.3327 24.0858 63.9562 24.376C64.5835 24.6661 65.0619 25.0759 65.3912 25.6052C65.7245 26.1345 65.8912 26.758 65.8912 27.4755C65.8912 28.1931 65.7245 28.8263 65.3912 29.3752C65.0619 29.9242 64.5835 30.3535 63.9562 30.6633C63.3327 30.973 62.574 31.1279 61.68 31.1279H57.1689ZM58.9863 29.5987H61.68C62.1976 29.5987 62.6348 29.4968 62.9916 29.2929C63.3523 29.089 63.6248 28.8243 63.8091 28.4989C63.9973 28.1734 64.0914 27.8245 64.0914 27.452C64.0914 26.9109 63.8836 26.4463 63.468 26.0581C63.0524 25.666 62.4564 25.4699 61.68 25.4699H58.9863V29.5987Z" fill="#D56ED7"/>
<path d="M69.0554 31.1279H67.1263L71.4609 19.0827H73.5606L77.8953 31.1279H75.9661L72.5608 21.2706H72.4667L69.0554 31.1279ZM69.3789 26.411H75.6368V27.9401H69.3789V26.411Z" fill="#D56ED7"/>
<path d="M83.6635 31.2926C82.8558 31.2926 82.1343 31.1534 81.4991 30.875C80.8679 30.5966 80.3679 30.2104 79.9994 29.7164C79.6347 29.2184 79.4387 28.642 79.4112 27.9872H81.258C81.2815 28.344 81.4011 28.6538 81.6168 28.9165C81.8363 29.1753 82.1226 29.3752 82.4755 29.5164C82.8283 29.6575 83.2204 29.7281 83.6518 29.7281C84.1262 29.7281 84.5457 29.6458 84.9104 29.4811C85.279 29.3164 85.5672 29.087 85.775 28.793C85.9828 28.495 86.0867 28.1519 86.0867 27.7637C86.0867 27.3598 85.9828 27.005 85.775 26.6992C85.5711 26.3894 85.2711 26.1463 84.8751 25.9699C84.483 25.7934 84.0086 25.7052 83.4518 25.7052H82.4343V24.2231H83.4518C83.8988 24.2231 84.2909 24.1427 84.6281 23.9819C84.9692 23.8212 85.2358 23.5977 85.428 23.3114C85.6201 23.0213 85.7161 22.6821 85.7161 22.2939C85.7161 21.9214 85.6318 21.598 85.4632 21.3235C85.2986 21.0451 85.0633 20.8275 84.7575 20.6706C84.4556 20.5138 84.0987 20.4354 83.687 20.4354C83.2949 20.4354 82.9283 20.5079 82.5872 20.653C82.25 20.7942 81.9755 20.9981 81.7638 21.2647C81.5521 21.5274 81.4384 21.843 81.4227 22.2116H79.6641C79.6837 21.5607 79.8758 20.9882 80.2405 20.4942C80.6091 20.0002 81.0953 19.6139 81.6991 19.3356C82.3029 19.0572 82.9734 18.918 83.7106 18.918C84.483 18.918 85.1496 19.0689 85.7103 19.3708C86.2749 19.6688 86.7101 20.0668 87.016 20.5648C87.3257 21.0627 87.4786 21.6078 87.4747 22.1998C87.4786 22.8742 87.2904 23.4467 86.9101 23.9172C86.5337 24.3877 86.0318 24.7034 85.4044 24.8641V24.9582C86.2043 25.0798 86.8238 25.3974 87.263 25.911C87.706 26.4247 87.9256 27.0618 87.9217 27.8225C87.9256 28.4852 87.7413 29.0792 87.3688 29.6046C87.0003 30.13 86.4964 30.5437 85.8573 30.8456C85.2182 31.1436 84.4869 31.2926 83.6635 31.2926Z" fill="#D56ED7"/>
<path d="M91.3271 31.1279H89.398L93.7326 19.0827H95.8323L100.167 31.1279H98.2378L94.8324 21.2706H94.7383L91.3271 31.1279ZM91.6506 26.411H97.9084V27.9401H91.6506V26.411Z" fill="#D56ED7"/>
<path d="M116.976 29.5223L116.817 33.9745H115.006V31.1279H114.159V29.5223H116.976ZM106.29 31.1279V19.0827H108.03V29.5517H113.841V19.0827H115.588V31.1279H106.29Z" fill="#D56ED7"/>
<path d="M118.97 31.1279V19.0827H123.381C124.236 19.0827 124.944 19.2238 125.504 19.5061C126.065 19.7845 126.485 20.1629 126.763 20.6412C127.041 21.1157 127.181 21.6509 127.181 22.2469C127.181 22.7488 127.088 23.1722 126.904 23.5173C126.72 23.8584 126.473 24.1329 126.163 24.3407C125.857 24.5446 125.52 24.6936 125.151 24.7877V24.9053C125.551 24.9249 125.942 25.0543 126.322 25.2935C126.706 25.5287 127.024 25.864 127.275 26.2992C127.526 26.7344 127.651 27.2638 127.651 27.8872C127.651 28.5028 127.506 29.0557 127.216 29.5458C126.93 30.032 126.487 30.4182 125.887 30.7044C125.287 30.9868 124.52 31.1279 123.587 31.1279H118.97ZM120.787 29.5693H123.411C124.281 29.5693 124.904 29.4007 125.281 29.0635C125.657 28.7263 125.845 28.3048 125.845 27.799C125.845 27.4187 125.749 27.0697 125.557 26.7521C125.365 26.4345 125.091 26.1816 124.734 25.9934C124.381 25.8052 123.961 25.7111 123.475 25.7111H120.787V29.5693ZM120.787 24.2936H123.222C123.63 24.2936 123.997 24.2152 124.322 24.0584C124.652 23.9015 124.912 23.682 125.104 23.3997C125.3 23.1134 125.398 22.7762 125.398 22.388C125.398 21.8901 125.224 21.4725 124.875 21.1353C124.526 20.7981 123.991 20.6295 123.269 20.6295H120.787V24.2936Z" fill="#D56ED7"/>
<path d="M129.807 31.1279V19.0827H137.358V20.6471H131.624V24.3172H136.964V25.8758H131.624V29.5634H137.429V31.1279H129.807Z" fill="#D56ED7"/>
<path d="M139.192 20.6471V19.0827H148.514V20.6471H144.756V31.1279H142.944V20.6471H139.192Z" fill="#D56ED7"/>
<path d="M160.52 25.1053C160.52 26.3914 160.284 27.4971 159.814 28.4224C159.343 29.3439 158.698 30.0536 157.879 30.5515C157.063 31.0456 156.136 31.2926 155.097 31.2926C154.054 31.2926 153.123 31.0456 152.303 30.5515C151.488 30.0536 150.845 29.3419 150.374 28.4165C149.904 27.4912 149.668 26.3874 149.668 25.1053C149.668 23.8192 149.904 22.7154 150.374 21.794C150.845 20.8687 151.488 20.159 152.303 19.6649C153.123 19.167 154.054 18.918 155.097 18.918C156.136 18.918 157.063 19.167 157.879 19.6649C158.698 20.159 159.343 20.8687 159.814 21.794C160.284 22.7154 160.52 23.8192 160.52 25.1053ZM158.72 25.1053C158.72 24.125 158.561 23.2997 158.244 22.6292C157.93 21.9548 157.499 21.445 156.95 21.1C156.405 20.751 155.787 20.5765 155.097 20.5765C154.403 20.5765 153.783 20.751 153.238 21.1C152.693 21.445 152.262 21.9548 151.944 22.6292C151.631 23.2997 151.474 24.125 151.474 25.1053C151.474 26.0855 151.631 26.9129 151.944 27.5873C152.262 28.2577 152.693 28.7675 153.238 29.1164C153.783 29.4615 154.403 29.634 155.097 29.634C155.787 29.634 156.405 29.4615 156.95 29.1164C157.499 28.7675 157.93 28.2577 158.244 27.5873C158.561 26.9129 158.72 26.0855 158.72 25.1053Z" fill="#D56ED7"/>
<path d="M162.786 31.1279V19.0827H167.197C168.051 19.0827 168.759 19.2238 169.32 19.5061C169.881 19.7845 170.3 20.1629 170.578 20.6412C170.857 21.1157 170.996 21.6509 170.996 22.2469C170.996 22.7488 170.904 23.1722 170.72 23.5173C170.535 23.8584 170.288 24.1329 169.979 24.3407C169.673 24.5446 169.336 24.6936 168.967 24.7877V24.9053C169.367 24.9249 169.757 25.0543 170.137 25.2935C170.522 25.5287 170.839 25.864 171.09 26.2992C171.341 26.7344 171.467 27.2638 171.467 27.8872C171.467 28.5028 171.321 29.0557 171.031 29.5458C170.745 30.032 170.302 30.4182 169.702 30.7044C169.102 30.9868 168.336 31.1279 167.402 31.1279H162.786ZM164.603 29.5693H167.226C168.096 29.5693 168.72 29.4007 169.096 29.0635C169.473 28.7263 169.661 28.3048 169.661 27.799C169.661 27.4187 169.565 27.0697 169.373 26.7521C169.181 26.4345 168.906 26.1816 168.549 25.9934C168.196 25.8052 167.777 25.7111 167.291 25.7111H164.603V29.5693ZM164.603 24.2936H167.038C167.446 24.2936 167.812 24.2152 168.138 24.0584C168.467 23.9015 168.728 23.682 168.92 23.3997C169.116 23.1134 169.214 22.7762 169.214 22.388C169.214 21.8901 169.039 21.4725 168.691 21.1353C168.342 20.7981 167.806 20.6295 167.085 20.6295H164.603V24.2936Z" fill="#D56ED7"/>
<path d="M177.841 31.1279V29.8105L181.916 25.5876C182.352 25.1288 182.71 24.7269 182.993 24.3819C183.279 24.0329 183.493 23.7016 183.634 23.3879C183.775 23.0742 183.846 22.7409 183.846 22.388C183.846 21.9881 183.752 21.6431 183.563 21.3529C183.375 21.0588 183.118 20.8334 182.793 20.6765C182.467 20.5158 182.101 20.4354 181.693 20.4354C181.262 20.4354 180.885 20.5236 180.564 20.7001C180.242 20.8765 179.995 21.1255 179.823 21.447C179.65 21.7685 179.564 22.1449 179.564 22.5762H177.829C177.829 21.843 177.997 21.2019 178.335 20.653C178.672 20.1041 179.135 19.6786 179.723 19.3767C180.311 19.0709 180.979 18.918 181.728 18.918C182.485 18.918 183.152 19.0689 183.728 19.3708C184.308 19.6688 184.761 20.0766 185.087 20.5942C185.412 21.1078 185.575 21.6881 185.575 22.3351C185.575 22.7821 185.49 23.2193 185.322 23.6467C185.157 24.0741 184.869 24.5505 184.457 25.0759C184.046 25.5974 183.473 26.2306 182.74 26.9756L180.346 29.4811V29.5693H185.769V31.1279H177.841Z" fill="#D56ED7"/>
<path d="M187.486 28.7753V27.3049L192.691 19.0827H193.85V21.247H193.115L189.392 27.1403V27.2344H196.526V28.7753H187.486ZM193.197 31.1279V28.3283L193.209 27.6578V19.0827H194.932V31.1279H193.197Z" fill="#D56ED7"/>
<path d="M199.305 31.2397C198.984 31.2397 198.707 31.1259 198.476 30.8985C198.244 30.6672 198.129 30.3888 198.129 30.0634C198.129 29.7418 198.244 29.4674 198.476 29.24C198.707 29.0086 198.984 28.8929 199.305 28.8929C199.627 28.8929 199.903 29.0086 200.134 29.24C200.366 29.4674 200.481 29.7418 200.481 30.0634C200.481 30.279 200.426 30.477 200.317 30.6574C200.211 30.8338 200.07 30.975 199.893 31.0809C199.717 31.1867 199.521 31.2397 199.305 31.2397Z" fill="#D56ED7"/>
</g>
</g>
<g id="Group 19">
<g id="&#209;&#128;&#209;&#131;">
<path d="M209.074 33.3401V20.9184H210.415V22.3535H210.579C210.681 22.1967 210.823 21.9967 211.003 21.7536C211.187 21.5066 211.45 21.287 211.791 21.0949C212.136 20.8988 212.603 20.8008 213.191 20.8008C213.951 20.8008 214.622 20.9909 215.202 21.3713C215.783 21.7516 216.235 22.2908 216.561 22.9887C216.886 23.6866 217.049 24.51 217.049 25.4589C217.049 26.4156 216.886 27.2449 216.561 27.9468C216.235 28.6447 215.785 29.1858 215.208 29.5701C214.632 29.9504 213.967 30.1406 213.214 30.1406C212.634 30.1406 212.169 30.0445 211.82 29.8524C211.471 29.6563 211.203 29.4348 211.015 29.1878C210.826 28.9368 210.681 28.729 210.579 28.5643H210.462V33.3401H209.074ZM210.438 25.4354C210.438 26.1176 210.538 26.7195 210.738 27.241C210.938 27.7586 211.23 28.1644 211.615 28.4585C211.999 28.7486 212.469 28.8937 213.026 28.8937C213.606 28.8937 214.091 28.7408 214.479 28.4349C214.871 28.1252 215.165 27.7096 215.361 27.1881C215.561 26.6626 215.661 26.0784 215.661 25.4354C215.661 24.8002 215.563 24.2277 215.367 23.718C215.175 23.2043 214.883 22.7985 214.491 22.5005C214.102 22.1986 213.614 22.0477 213.026 22.0477C212.461 22.0477 211.987 22.1908 211.603 22.477C211.219 22.7593 210.928 23.1553 210.732 23.6651C210.536 24.1709 210.438 24.761 210.438 25.4354Z" fill="#D56ED7"/>
<path d="M219.737 33.3401C219.502 33.3401 219.292 33.3205 219.108 33.2813C218.923 33.246 218.796 33.2107 218.725 33.1754L219.078 31.9521C219.415 32.0383 219.713 32.0697 219.972 32.0462C220.231 32.0226 220.46 31.907 220.66 31.6992C220.864 31.4953 221.05 31.1639 221.219 30.7052L221.478 29.9994L218.137 20.9184H219.643L222.137 28.1173H222.231L224.724 20.9184H226.23L222.395 31.2698C222.223 31.7364 222.009 32.1226 221.754 32.4285C221.499 32.7382 221.203 32.9676 220.866 33.1166C220.533 33.2656 220.156 33.3401 219.737 33.3401Z" fill="#D56ED7"/>
</g>
<path id="Ellipse 4" d="M230.25 26.5C230.25 33.5416 224.542 39.25 217.5 39.25C210.458 39.25 204.75 33.5416 204.75 26.5C204.75 19.4584 210.458 13.75 217.5 13.75C224.542 13.75 230.25 19.4584 230.25 26.5Z" stroke="#D56ED7" stroke-width="1.5"/>
</g>
</g>
</g>
</g>
</g>
</svg>
