<svg width="53" height="53" viewBox="0 0 53 53" fill="none" xmlns="http://www.w3.org/2000/svg">
<g id="&#208;&#187;&#208;&#190;&#208;&#179;&#208;&#190; &#208;&#184; &#208;&#190;&#208;&#191;&#208;&#184;&#209;&#129;&#208;&#176;&#208;&#189;&#208;&#184;&#208;&#181;">
<g id="&#208;&#187;&#208;&#190;&#208;&#179;&#208;&#190;">
<g id="Group 117">
<g id="Group 81">
<g id="&#208;&#177;&#208;&#190;&#208;&#187;&#209;&#140;&#209;&#136;&#208;&#190;&#208;&#181; &#208;&#187;&#208;&#190;&#208;&#179;&#208;&#190;">
<g id="g12">
<path id="path14" d="M32.2977 37.5025C32.2959 37.5037 32.294 37.5043 32.2922 37.505C32.2719 37.513 32.2516 37.521 32.2313 37.5289C29.3611 38.7325 28.5376 41.535 28.3537 42.3579C28.3396 42.4206 28.2517 42.4206 28.2369 42.3579C27.9761 41.2534 28.1993 38.484 28.7178 37.267C29.278 35.9529 31.2172 34.0138 31.6913 33.4536C32.0806 32.9929 32.8334 31.0219 33.0898 30.3318C33.1126 30.271 33.203 30.2839 33.206 30.3484C33.2626 31.4062 32.7959 33.4302 32.6704 33.9529C32.658 34.0021 32.7104 34.0433 32.7558 34.0206C37.7039 31.5588 40.3268 27.4635 40.9289 26.4328C40.9615 26.3774 41.0464 26.4057 41.0402 26.4697C40.2383 34.9505 33.9428 36.6282 32.2977 37.5025ZM35.5916 31.1227C35.5916 31.1258 35.5916 31.1276 35.591 31.1301C35.5866 31.1793 35.5079 31.6934 34.3204 32.2469C34.2773 32.3115 34.9022 30.4801 35.0743 29.8546C35.1956 29.4161 35.3167 28.723 35.4151 28.3337C35.4323 28.2655 35.532 28.2778 35.5331 28.3473L35.5916 31.1227ZM37.1848 29.7906C37.1854 29.8042 37.1811 29.8177 37.1731 29.8288C37.0711 29.9628 36.3921 30.8392 35.9145 31.0182C35.8555 31.0581 36.5907 29.3823 36.98 27.4623C36.9942 27.3922 37.0957 27.4002 37.0987 27.4715L37.1848 29.7906ZM27.5598 32.6959V26.8614C27.5598 26.8454 27.5659 26.8307 27.5776 26.819L35.1857 19.2109C35.2091 19.1875 35.2472 19.1875 35.2706 19.2109L37.9646 21.9052C38.111 22.0515 38.111 22.2889 37.9646 22.4353L27.6625 32.7383C27.6244 32.7758 27.5598 32.7494 27.5598 32.6959V32.6959ZM26.4509 24.9808L19.2468 17.7773C19.2235 17.7533 19.2235 17.7158 19.2468 17.6918L26.2351 10.7043C26.3808 10.5579 26.6182 10.5579 26.7639 10.7043L28.1237 12.064C28.1477 12.0874 28.1477 12.1255 28.1237 12.1489L22.6355 17.6371C22.6121 17.6611 22.6121 17.6986 22.6355 17.722L26.4965 21.5835C26.5204 21.6069 26.558 21.6069 26.5813 21.5835L30.382 17.7829C30.4053 17.7595 30.4053 17.7214 30.382 17.698L28.5315 15.8481C28.5081 15.8247 28.47 15.8247 28.4466 15.8481L27.6329 16.6617C27.609 16.6851 27.609 16.7232 27.6329 16.7466L28.5235 17.6371C28.5468 17.6611 28.5468 17.6986 28.5235 17.722L26.5358 19.7096C26.5124 19.733 26.4743 19.733 26.4509 19.7096L24.5402 17.7982C24.5162 17.7749 24.5162 17.7367 24.5402 17.7134L29.1138 13.139C29.1379 13.1157 29.1753 13.1157 29.1994 13.139L33.746 17.6863C33.7694 17.7097 33.7694 17.7478 33.746 17.7712L33.3801 18.1371L26.5358 24.9808C26.5124 25.0041 26.4743 25.0041 26.4509 24.9808V24.9808ZM25.5334 32.7894C25.5334 32.8429 25.4687 32.8699 25.4307 32.8318L14.9911 22.3923C14.8687 22.2699 14.8687 22.0706 14.9917 21.9476L17.7451 19.1943C17.7684 19.1709 17.8066 19.1709 17.8299 19.1943L25.5155 26.8799C25.5272 26.8916 25.5334 26.9063 25.5334 26.9223V32.7894ZM17.4074 31.1227L17.4659 28.3473C17.4671 28.2778 17.5667 28.2655 17.5839 28.3337C17.683 28.723 17.8035 29.4161 17.9246 29.8546C18.0968 30.4801 18.7223 32.3115 18.6786 32.2469C17.4911 31.6934 17.413 31.1793 17.4081 31.1301C17.4074 31.1276 17.4074 31.1258 17.4074 31.1227V31.1227ZM15.814 29.7906L15.9007 27.4715C15.9032 27.4002 16.0046 27.3922 16.0188 27.4623C16.4081 29.3823 17.1436 31.0581 17.0846 31.0182C16.6073 30.8392 15.9278 29.9628 15.8263 29.8288C15.8177 29.8177 15.8133 29.8042 15.814 29.7906ZM14.8866 28.8632L14.9026 27.7083C14.9032 27.6394 15.0003 27.6259 15.02 27.6917C15.2377 28.4407 15.6584 29.691 15.6406 29.7255C15.6209 29.7654 15.0016 29.0237 14.9007 28.902C14.8915 28.8909 14.8866 28.8774 14.8866 28.8632V28.8632ZM24.7622 42.3579C24.7473 42.4206 24.6595 42.4206 24.6453 42.3579C24.4614 41.535 23.638 38.7325 20.7677 37.5289C20.7475 37.521 20.7272 37.513 20.7074 37.505C20.705 37.5043 20.7037 37.5037 20.702 37.5025C19.0562 36.6282 12.7605 34.9505 11.9586 26.4697C11.9524 26.4057 12.0379 26.3774 12.0699 26.4328C12.672 27.4635 15.2949 31.5588 20.2432 34.0206C20.2886 34.0433 20.341 34.0021 20.3287 33.9529C20.2032 33.4302 19.7364 31.4062 19.793 30.3484C19.7966 30.2839 19.8865 30.271 19.9092 30.3318C20.1656 31.0219 20.9184 32.9929 21.3077 33.4536C21.7819 34.0138 23.7209 35.9529 24.2812 37.267C24.8003 38.484 25.0229 41.2534 24.7622 42.3579V42.3579ZM38.0969 27.7083L38.1122 28.8632C38.1122 28.8774 38.1073 28.8909 38.0981 28.902C37.9972 29.0237 37.3779 29.7654 37.3583 29.7255C37.341 29.691 37.7611 28.4407 37.9794 27.6917C37.9985 27.6259 38.0956 27.6394 38.0969 27.7083V27.7083ZM26.4995 8.51304C16.5661 8.51304 8.5127 16.5664 8.5127 26.4998C8.5127 36.4338 16.5661 44.4863 26.4995 44.4863C36.4333 44.4863 44.4861 36.4338 44.4861 26.4998C44.4861 16.5664 36.4333 8.51304 26.4995 8.51304Z" fill="#D56ED7"/>
<path id="path20" d="M26.5 0.73798C12.2947 0.73798 0.73798 12.2948 0.73798 26.5002C0.73798 40.7053 12.2947 52.262 26.5 52.262C40.7053 52.262 52.262 40.7053 52.262 26.5002C52.262 12.2948 40.7053 0.73798 26.5 0.73798ZM26.5 53C22.9227 53 19.4522 52.2993 16.1849 50.9174C13.0293 49.5826 10.1953 47.6719 7.76171 45.2384C5.32809 42.8047 3.4174 39.9708 2.0827 36.8154C0.700713 33.548 0 30.0776 0 26.5002C0 22.9229 0.700713 19.4519 2.0827 16.1851C3.4174 13.029 5.32809 10.1952 7.76171 7.76171C10.1953 5.32822 13.0293 3.41746 16.1849 2.08295C19.4522 0.701082 22.9227 -2.75474e-07 26.5 -2.75474e-07C30.0773 -2.75474e-07 33.5478 0.701082 36.8149 2.08295C39.971 3.41746 42.8048 5.32822 45.2383 7.76171C47.6718 10.1952 49.5825 13.029 50.9171 16.1851C52.2995 19.4519 53 22.9229 53 26.5002C53 30.0776 52.2995 33.548 50.9171 36.8154C49.5825 39.9708 47.6718 42.8047 45.2383 45.2384C42.8048 47.6719 39.971 49.5826 36.8149 50.9174C33.5478 52.2993 30.0773 53 26.5 53" fill="#D56ED7"/>
<path id="path22" d="M26.5009 7.9705C16.2838 7.9705 7.97154 16.2828 7.97154 26.5003C7.97154 36.7172 16.2838 45.0294 26.5009 45.0294C36.7182 45.0294 45.0304 36.7172 45.0304 26.5003C45.0304 16.2828 36.7182 7.9705 26.5009 7.9705ZM26.5009 45.3984C21.4529 45.3984 16.7071 43.4327 13.1377 39.8632C9.56831 36.2935 7.60254 31.5482 7.60254 26.5003C7.60254 21.4524 9.56831 16.7065 13.1377 13.1371C16.7071 9.56764 21.4529 7.6015 26.5009 7.6015C31.5487 7.6015 36.2944 9.56764 39.8639 13.1371C43.4333 16.7065 45.3994 21.4524 45.3994 26.5003C45.3994 31.5482 43.4333 36.2935 39.8639 39.8632C36.2944 43.4327 31.5487 45.3984 26.5009 45.3984Z" fill="#D56ED7"/>
<path id="path24" d="M7.93285 36.66C7.93285 37.3294 7.39024 37.8721 6.72082 37.8721C6.05146 37.8721 5.50879 37.3294 5.50879 36.66C5.50879 35.9909 6.05146 35.4478 6.72082 35.4478C7.39024 35.4478 7.93285 35.9909 7.93285 36.66Z" fill="#D56ED7"/>
<path id="path26" d="M47.4917 36.66C47.4917 37.3294 46.9487 37.8721 46.2795 37.8721C45.6098 37.8721 45.0674 37.3294 45.0674 36.66C45.0674 35.9909 45.6098 35.4478 46.2795 35.4478C46.9487 35.4478 47.4917 35.9909 47.4917 36.66Z" fill="#D56ED7"/>
<path id="path28" d="M5.5802 27.4977L5.56409 26.8034C5.55683 26.4909 5.27018 26.2462 4.96484 26.3132C4.73716 26.363 4.6272 26.5549 4.63489 26.8882L4.64953 27.5192C4.6499 27.5358 4.66336 27.5487 4.6796 27.5481L5.55142 27.5278C5.56766 27.5278 5.58051 27.5143 5.5802 27.4977V27.4977ZM6.7276 29.029L1.66409 29.1465C1.64786 29.1465 1.63433 29.1336 1.63402 29.1176L1.54786 25.3975C1.54749 25.3815 1.56034 25.368 1.57658 25.3673L2.59102 25.344C2.60725 25.3434 2.62072 25.3563 2.62109 25.3729L2.67189 27.5653C2.67226 27.5813 2.68573 27.5942 2.70196 27.5942L3.57003 27.5739C3.58626 27.5733 3.59912 27.5604 3.59875 27.5438L3.57968 26.7216C3.56873 26.2462 3.61264 25.8741 3.71154 25.6053C3.81043 25.336 3.97629 25.1201 4.20907 24.9571C4.44184 24.7942 4.72708 24.7087 5.06483 24.7007C5.34503 24.6945 5.61919 24.7517 5.88733 24.8735C6.15547 24.9947 6.35565 25.2081 6.48781 25.5125C6.6201 25.8175 6.68984 26.1275 6.69709 26.443L6.75638 28.9989C6.75669 29.0149 6.74383 29.0284 6.7276 29.029" fill="#D56ED7"/>
<path id="path30" d="M5.49213 20.1838L5.72601 19.4698C5.73204 19.4513 5.71882 19.4317 5.69932 19.431L4.30193 19.3689C4.27216 19.3677 4.25956 19.4064 4.28428 19.423L5.44785 20.1992C5.46403 20.2096 5.48604 20.2022 5.49213 20.1838V20.1838ZM7.9146 19.5565L6.9092 19.519C6.8961 19.5184 6.88423 19.527 6.88018 19.5393L6.46671 20.8019C6.46265 20.8142 6.46721 20.8277 6.47772 20.8351L7.30594 21.4169C7.31651 21.4242 7.32101 21.4378 7.31701 21.4501L6.93885 22.605C6.9327 22.6235 6.91006 22.6309 6.89389 22.6198L2.56715 19.5577C2.55657 19.5504 2.55214 19.5368 2.55614 19.5245L3.06013 17.9852C3.06413 17.9729 3.07563 17.9649 3.08848 17.9649L8.39614 18.0313C8.416 18.0319 8.42996 18.0516 8.42375 18.0701L7.94362 19.5362C7.93957 19.5485 7.9277 19.5571 7.9146 19.5565" fill="#D56ED7"/>
<path id="path32" d="M8.10948 15.3095L8.82681 14.1306C8.8348 14.1177 8.85184 14.1134 8.86549 14.1201C9.08148 14.2308 9.26358 14.2769 9.41179 14.2597C9.5656 14.2419 9.70773 14.1472 9.83823 13.9762C10.1038 13.6275 10.0794 13.3335 9.76492 13.0943C9.48836 12.8834 9.24304 12.9178 9.02914 13.1982L8.83074 13.4584C8.8209 13.4713 8.80245 13.4738 8.78948 13.4639L8.11993 12.9535C8.10702 12.9436 8.10449 12.9252 8.11433 12.9123L8.2877 12.6853C8.47737 12.4363 8.43395 12.2063 8.15732 11.9953C7.89466 11.7954 7.63661 11.8612 7.38323 12.1933C7.26945 12.3428 7.20974 12.4861 7.20414 12.6238C7.19873 12.7561 7.28311 12.9172 7.45721 13.1078C7.46804 13.1195 7.46785 13.138 7.45623 13.149L6.57635 13.9836C6.56485 13.9947 6.5464 13.994 6.53502 13.9836C5.79463 13.269 5.79433 12.4264 6.53404 11.4566C6.89966 10.9769 7.29799 10.6466 7.72885 10.4652C8.15972 10.2838 8.56224 10.336 8.93634 10.6214C9.30939 10.9055 9.43448 11.3077 9.31155 11.8274C9.30546 11.8532 9.33295 11.8729 9.35558 11.8594C9.89641 11.5273 10.3805 11.5242 10.8079 11.8502C11.18 12.1337 11.3696 12.5303 11.3765 13.0389C11.3835 13.5476 11.1745 14.0808 10.7496 14.6379C10.3505 15.1613 9.91836 15.4916 9.45306 15.6293C8.99544 15.7646 8.55018 15.6717 8.11722 15.3495C8.10498 15.3403 8.10154 15.323 8.10948 15.3095" fill="#D56ED7"/>
<path id="path34" d="M13.8967 8.55477L14.5219 8.1378C14.5381 8.12735 14.5395 8.10398 14.5247 8.09107L13.4644 7.17902C13.4418 7.15934 13.4079 7.1821 13.4172 7.21039L13.8525 8.54001C13.8586 8.55846 13.8806 8.56584 13.8967 8.55477V8.55477ZM16.189 9.55844L15.4216 8.90778C15.4116 8.89978 15.3972 8.89855 15.3863 8.90593L14.281 9.64331C14.2702 9.65069 14.2654 9.66422 14.2692 9.67652L14.5611 10.6451C14.5648 10.6574 14.56 10.671 14.5493 10.6783L13.5384 11.3524C13.5219 11.3635 13.4995 11.3555 13.4939 11.3364L11.9836 6.2553C11.98 6.243 11.9848 6.23008 11.9956 6.2227L13.3428 5.32359C13.3535 5.31682 13.3675 5.31744 13.3776 5.32543L17.5099 8.65686C17.5253 8.66978 17.5243 8.69376 17.5078 8.70421L16.2244 9.56091C16.2135 9.56829 16.199 9.56705 16.189 9.55844" fill="#D56ED7"/>
<path id="path36" d="M23.5279 6.77803L23.3127 1.7449C23.3116 1.72153 23.33 1.70124 23.3537 1.70001L24.7943 1.63851C24.8179 1.63728 24.838 1.65573 24.839 1.67972L25.0026 5.5056C25.0036 5.52897 25.0236 5.54742 25.0473 5.5462L26.0641 5.50315C26.0878 5.50192 26.1062 5.48162 26.1052 5.45825L25.9415 1.63236C25.9405 1.60899 25.9589 1.58869 25.9826 1.58808L27.4232 1.52597C27.4469 1.52535 27.4669 1.5438 27.4679 1.56717L27.6315 5.39368C27.6325 5.41705 27.6521 5.43549 27.6755 5.43488L28.3992 5.41643L27.2759 7.26818C27.254 7.30447 27.1984 7.29032 27.1963 7.24789L27.1696 6.70792C27.1684 6.68455 27.1485 6.6661 27.1248 6.66733L23.5726 6.81924C23.5489 6.82047 23.5289 6.80201 23.5279 6.77803" fill="#D56ED7"/>
<path id="path38" d="M32.7916 4.39215C32.7868 4.40753 32.7954 4.42413 32.8109 4.42905L33.478 4.63692C33.6524 4.69165 33.7892 4.6855 33.8885 4.6197C33.9877 4.5539 34.053 4.47025 34.0843 4.37001C34.1692 4.09757 34.0445 3.90938 33.7101 3.80544L33.0681 3.60496C33.0526 3.60004 33.036 3.60865 33.0312 3.62402L32.7916 4.39215ZM32.1901 6.32016C32.1853 6.33554 32.194 6.35214 32.2095 6.35706L32.9124 6.576C33.0939 6.63258 33.2411 6.6295 33.3538 6.56616C33.4666 6.50343 33.5404 6.41548 33.5756 6.30356C33.6105 6.19101 33.6016 6.07478 33.5486 5.95485C33.4956 5.83493 33.3592 5.74022 33.1395 5.67195L32.4867 5.46839C32.4712 5.46347 32.4547 5.47208 32.4499 5.48746L32.1901 6.32016ZM30.4672 6.97759L31.9756 2.14249C31.9804 2.12712 31.997 2.11851 32.0125 2.12343L34.4676 2.88971C34.9836 3.05023 35.3192 3.29807 35.4745 3.63201C35.6298 3.96657 35.6552 4.30052 35.5509 4.63507C35.4749 4.87861 35.3374 5.07787 35.1386 5.23162C34.9627 5.36815 34.7491 5.4401 34.4977 5.44748C34.4693 5.4481 34.4586 5.48499 34.4822 5.50037C35.0013 5.84538 35.171 6.30602 34.9912 6.88288C34.8779 7.24573 34.6651 7.53539 34.3527 7.75125C34.0402 7.9665 33.5185 7.96035 32.7875 7.7328L30.4864 7.01449C30.4709 7.00957 30.4623 6.99296 30.4672 6.97759" fill="#D56ED7"/>
<path id="path40" d="M40.5771 10.8152L39.8865 11.7537C39.8772 11.7666 39.8588 11.7697 39.8453 11.7598L36.7881 9.50955C36.7752 9.49971 36.7727 9.48126 36.782 9.46835L39.7844 5.38908C39.7942 5.37616 39.8127 5.3737 39.8256 5.38293L42.8827 7.6332C42.8963 7.64304 42.8987 7.66149 42.8889 7.67441L42.2228 8.57968C42.2136 8.59259 42.1952 8.59505 42.1822 8.58583L40.3674 7.25006C40.3539 7.24022 40.3354 7.24329 40.3262 7.25621L39.9203 7.80724C39.9105 7.82016 39.9135 7.83861 39.9264 7.84845L41.3846 8.92161C41.3975 8.93145 41.4006 8.94991 41.3907 8.96282L40.7518 9.8312C40.7419 9.84473 40.7235 9.84719 40.7106 9.83735L39.2524 8.76418C39.2395 8.75495 39.221 8.75741 39.2112 8.77033L38.75 9.39701C38.7401 9.41054 38.7432 9.42899 38.7561 9.43821L40.571 10.7746C40.5839 10.7838 40.5869 10.8023 40.5771 10.8152" fill="#D56ED7"/>
<path id="path42" d="M45.9456 13.0222L42.8633 15.3075C42.8503 15.3173 42.8319 15.3149 42.8221 15.3013L41.9697 14.1519C41.9598 14.139 41.9629 14.1205 41.9758 14.1107L45.0582 11.8254C45.0711 11.8155 45.0742 11.7971 45.0643 11.7842L44.4666 10.9779C44.4567 10.965 44.4598 10.9466 44.4727 10.9367L45.4118 10.2405C45.4247 10.2313 45.4432 10.2338 45.4524 10.2467L47.5704 13.1033C47.5803 13.1163 47.5778 13.1347 47.5643 13.1446L46.6258 13.8401C46.6129 13.8499 46.5944 13.8475 46.5846 13.8346L45.9868 13.0283C45.977 13.0154 45.9591 13.0123 45.9456 13.0222" fill="#D56ED7"/>
<path id="path44" d="M46.3133 19.9531C46.3969 20.2046 46.566 20.3498 46.8225 20.3879C47.0789 20.4254 47.4996 20.3479 48.0838 20.1554C48.9301 19.8762 49.2781 19.5097 49.1281 19.0558C48.9663 18.5663 48.4036 18.4808 47.4387 18.7988C46.5334 19.0976 46.1583 19.4826 46.3133 19.9531V19.9531ZM45.2106 20.3246C44.9849 19.6401 45.0279 19.0079 45.3391 18.4267C45.6509 17.8455 46.1866 17.4292 46.9473 17.1782C47.6742 16.9384 48.3434 16.9464 48.9534 17.2022C49.5635 17.4581 49.9891 17.9519 50.2308 18.6837C50.454 19.3609 50.4128 19.9869 50.1072 20.5607C49.8009 21.1345 49.2751 21.5447 48.5291 21.7913C47.7566 22.0459 47.0666 22.0355 46.459 21.7587C45.8514 21.4826 45.435 21.0041 45.2106 20.3246Z" fill="#D56ED7"/>
<path id="path46" d="M49.4732 26.6604C49.4572 26.6598 49.4437 26.6727 49.4431 26.6893L49.4209 27.3874C49.4154 27.57 49.4572 27.7004 49.5476 27.7785C49.638 27.856 49.7352 27.8966 49.8404 27.9003C50.1257 27.9089 50.2739 27.7385 50.285 27.3886L50.3059 26.7164C50.3065 26.6998 50.2936 26.6863 50.2776 26.6857L49.4732 26.6604ZM47.4548 26.5971C47.4388 26.5965 47.4253 26.6094 47.4247 26.6254L47.4013 27.3615C47.3952 27.5516 47.4382 27.6924 47.5286 27.784C47.6196 27.8757 47.7242 27.9236 47.8416 27.9273C47.9591 27.931 48.0686 27.8917 48.17 27.808C48.2715 27.725 48.3263 27.5682 48.3336 27.3382L48.3552 26.6549C48.3552 26.6383 48.3429 26.6248 48.3263 26.6248L47.4548 26.5971ZM46.3601 25.1131L51.4221 25.2724C51.4387 25.273 51.451 25.2865 51.4504 25.3025L51.3699 27.8732C51.3526 28.4132 51.2038 28.8031 50.924 29.0423C50.6436 29.2809 50.3281 29.3953 49.9775 29.3843C49.7229 29.3763 49.4941 29.2969 49.2924 29.1469C49.1141 29.014 48.9874 28.8271 48.9136 28.5866C48.905 28.5595 48.8668 28.5589 48.8576 28.586C48.6645 29.1788 48.266 29.4654 47.6627 29.4464C47.282 29.4347 46.9462 29.3068 46.6547 29.0638C46.3632 28.8203 46.2297 28.316 46.2537 27.551L46.3294 25.1414C46.33 25.1254 46.3435 25.1125 46.3601 25.1131" fill="#D56ED7"/>
<path id="path48" d="M12.4297 46.0031L11.6843 46.8368L8.99805 44.6433L9.66028 43.8323L10.6042 43.9014C10.7414 43.9129 11.0115 43.9174 11.4146 43.915C11.8176 43.9125 12.0992 43.8879 12.2597 43.8409C12.4201 43.794 12.5482 43.712 12.6438 43.5949C12.7352 43.483 12.7767 43.3669 12.7683 43.2467C12.7599 43.1265 12.7039 43.024 12.6003 42.9394C12.3411 42.7278 12.03 42.8125 11.6671 43.1935L10.9173 42.2928C11.3216 41.9312 11.7359 41.755 12.1603 41.7644C12.5846 41.7736 12.9733 41.9224 13.3264 42.2106C13.7087 42.5228 13.9371 42.8801 14.0117 43.2826C14.0863 43.685 13.9845 44.0568 13.7061 44.3977C13.5205 44.625 13.2782 44.7873 12.9791 44.8847C12.68 44.9821 12.0388 44.9809 11.0555 44.8811L12.4297 46.0031" fill="#D56ED7"/>
<path id="path50" d="M16.3004 47.1908L16.8891 45.9653L15.5236 46.8176L16.3004 47.1908ZM17.579 48.9037L17.0018 48.6265L16.5686 49.5283L15.4383 48.9853L15.8716 48.0836L14.1943 47.2779L14.6231 46.3851L17.3074 44.7557L18.5698 45.3621L17.4307 47.7338L18.0078 48.011L17.579 48.9037" fill="#D56ED7"/>
<path id="path52" d="M25.2393 51.4207L25.3326 49.8195C25.0563 50.0127 24.7285 50.0983 24.3489 50.0761C23.9228 50.0513 23.5784 49.9143 23.3157 49.6651C23.0529 49.4161 22.937 49.0274 22.9677 48.4992L23.0705 46.7348L24.4654 46.8161L24.3611 48.607C24.3516 48.7692 24.371 48.886 24.4191 48.9578C24.4672 49.0297 24.5768 49.0706 24.7477 49.0805C24.954 49.0926 25.1653 49.0593 25.3815 48.9805L25.5042 46.8766L26.8989 46.9579L26.6341 51.502L25.2393 51.4207" fill="#D56ED7"/>
<path id="path54" d="M30.3651 49.1661L31.0883 49.0267L30.4768 47.7998L30.3651 49.1661ZM31.9395 50.7882L31.5173 49.9561L30.3199 50.1868L30.2212 51.1194L29.1074 51.334L29.626 46.5985L31.0766 46.3189L33.3396 50.5184L31.9395 50.7882" fill="#D56ED7"/>
<path id="path56" d="M37.0265 47.0587L38.2103 46.574C38.3979 47.1028 38.3979 47.5779 38.2097 47.999C38.0215 48.4203 37.6956 48.7422 37.2331 48.965C36.6759 49.233 36.1378 49.2651 35.6178 49.0614C35.0979 48.8577 34.6817 48.4313 34.3694 47.7822C34.0599 47.1392 33.9725 46.5423 34.1071 45.9915C34.2417 45.4406 34.5994 45.0255 35.1803 44.7458C35.7232 44.4846 36.2128 44.4341 36.6489 44.5943C37.0849 44.7545 37.4416 45.0739 37.7183 45.5524L36.5738 46.1808C36.4422 45.9064 36.294 45.7334 36.1298 45.6618C35.9661 45.5902 35.813 45.5886 35.6708 45.6571C35.2741 45.848 35.2676 46.3421 35.6513 47.1394C35.8663 47.5862 36.0639 47.8648 36.2442 47.9754C36.4244 48.086 36.6076 48.0964 36.794 48.0068C37.1267 47.8467 37.2042 47.5307 37.0265 47.0587" fill="#D56ED7"/>
<path id="path58" d="M40.7461 44.4298L41.3088 43.9548L40.1754 43.1834L40.7461 44.4298ZM42.9127 45.0752L42.1372 44.5557L41.2055 45.3424L41.5757 46.2041L40.7086 46.9358L38.8458 42.5513L39.9749 41.5983L44.0019 44.1554L42.9127 45.0752" fill="#D56ED7"/>
</g>
</g>
</g>
</g>
</g>
</g>
</svg>
