<svg width="35" height="28" viewBox="0 0 35 28" fill="none" xmlns="http://www.w3.org/2000/svg">
<g id="MasterCard logo" clip-path="url(#clip0_131_1331)">
<path id="Vector" d="M34.0528 27.0977V27.167H34.1176C34.1298 27.1672 34.1418 27.1641 34.1523 27.1581C34.1566 27.1552 34.16 27.1512 34.1622 27.1466C34.1645 27.1419 34.1656 27.1368 34.1654 27.1317C34.1656 27.1266 34.1645 27.1216 34.1622 27.1171C34.1599 27.1126 34.1565 27.1087 34.1523 27.1059C34.1419 27.0996 34.1298 27.0965 34.1176 27.0971H34.0528V27.0977ZM34.1183 27.0488C34.1461 27.0471 34.1736 27.055 34.1961 27.0713C34.2051 27.0786 34.2123 27.088 34.2171 27.0987C34.2218 27.1093 34.224 27.1209 34.2234 27.1325C34.2238 27.1425 34.222 27.1525 34.2183 27.1618C34.2145 27.1711 34.2088 27.1794 34.2015 27.1863C34.1841 27.2014 34.1623 27.2105 34.1393 27.2121L34.2261 27.3108H34.1593L34.0794 27.2128H34.0535V27.3108H33.9976V27.0489H34.1192L34.1183 27.0488ZM34.1009 27.4011C34.1303 27.4014 34.1593 27.3955 34.1862 27.3838C34.2121 27.3727 34.2357 27.3568 34.2557 27.3369C34.2757 27.3171 34.2917 27.2936 34.3027 27.2677C34.3255 27.2128 34.3255 27.1512 34.3027 27.0964C34.2915 27.0706 34.2755 27.0471 34.2557 27.0271C34.2357 27.0073 34.2121 26.9914 34.1862 26.9802C34.1592 26.9692 34.1302 26.9637 34.1009 26.964C34.0712 26.9637 34.0417 26.9692 34.0141 26.9802C33.9876 26.9912 33.9635 27.0071 33.943 27.0271C33.9123 27.0585 33.8915 27.0983 33.8833 27.1413C33.875 27.1844 33.8797 27.2289 33.8967 27.2694C33.9072 27.2954 33.923 27.3189 33.943 27.3386C33.9635 27.3587 33.9876 27.3746 34.0141 27.3855C34.0415 27.3972 34.0711 27.4031 34.1009 27.4028M34.1009 26.901C34.1773 26.9009 34.2506 26.9307 34.305 26.9841C34.3313 27.0096 34.3522 27.0402 34.3665 27.0739C34.3813 27.1085 34.389 27.1457 34.389 27.1833C34.389 27.2209 34.3813 27.2582 34.3665 27.2928C34.3518 27.3263 34.331 27.3567 34.305 27.3826C34.2784 27.408 34.2474 27.4286 34.2135 27.4432C34.1779 27.4582 34.1396 27.4659 34.1009 27.4656C34.0618 27.4659 34.023 27.4583 33.987 27.4432C33.9527 27.4289 33.9214 27.4083 33.8948 27.3826C33.8688 27.3558 33.8482 27.3243 33.8341 27.2898C33.8193 27.2552 33.8116 27.218 33.8116 27.1804C33.8116 27.1428 33.8193 27.1055 33.8341 27.0709C33.8485 27.0372 33.8694 27.0067 33.8956 26.9811C33.9219 26.9549 33.9533 26.9343 33.9879 26.9205C34.0239 26.9054 34.0627 26.8978 34.1018 26.898M7.50615 25.8899C7.50615 25.3906 7.83441 24.9805 8.37093 24.9805C8.88365 24.9805 9.22963 25.373 9.22963 25.8899C9.22963 26.4068 8.88365 26.7992 8.37093 26.7992C7.83441 26.7992 7.50615 26.3891 7.50615 25.8899ZM9.81408 25.8899V24.4691H9.1942V24.8152C8.99759 24.5595 8.69937 24.399 8.29381 24.399C7.49486 24.399 6.86785 25.0234 6.86785 25.8906C6.86785 26.7577 7.49451 27.3821 8.29381 27.3821C8.69919 27.3821 8.99759 27.2215 9.1942 26.9659V27.3108H9.81339V25.8899H9.81408ZM30.7592 25.8899C30.7592 25.3906 31.0875 24.9805 31.6242 24.9805C32.1374 24.9805 32.4829 25.373 32.4829 25.8899C32.4829 26.4068 32.1374 26.7992 31.6242 26.7992C31.0876 26.7992 30.7592 26.3891 30.7592 25.8899ZM33.0678 25.8899V23.3287H32.4474V24.8152C32.2508 24.5595 31.9526 24.399 31.547 24.399C30.7481 24.399 30.1211 25.0234 30.1211 25.8906C30.1211 26.7577 30.7477 27.3821 31.547 27.3821C31.9526 27.3821 32.2508 27.2215 32.4474 26.9659V27.3108H33.0678V25.8899ZM17.5077 24.9512C17.9071 24.9512 18.1637 25.2008 18.2292 25.6402H16.7501C16.8162 25.23 17.0662 24.9512 17.5078 24.9512M17.5202 24.3975C16.6847 24.3975 16.1003 25.0032 16.1003 25.889C16.1003 26.7921 16.7082 27.3805 17.5617 27.3805C17.991 27.3805 18.3843 27.2737 18.7302 26.9825L18.4265 26.5248C18.1875 26.7151 17.8832 26.8219 17.5971 26.8219C17.1976 26.8219 16.8339 26.6376 16.7445 26.1262H18.8612C18.8673 26.0494 18.8735 25.9719 18.8735 25.8888C18.8673 25.0033 18.3177 24.3973 17.5198 24.3973M25.004 25.8888C25.004 25.3896 25.3322 24.9795 25.8687 24.9795C26.3815 24.9795 26.7274 25.3719 26.7274 25.8888C26.7274 26.4057 26.3815 26.7982 25.8687 26.7982C25.3322 26.7982 25.0038 26.3881 25.0038 25.8888M27.3117 25.8888V24.4691H26.6922V24.8152C26.4949 24.5595 26.1973 24.399 25.7918 24.399C24.9928 24.399 24.3658 25.0234 24.3658 25.8906C24.3658 26.7577 24.9925 27.3821 25.7918 27.3821C26.1973 27.3821 26.4949 27.2215 26.6922 26.9659V27.3108H27.3119V25.8899L27.3117 25.8888ZM21.5033 25.8888C21.5033 26.7504 22.1053 27.3803 23.0241 27.3803C23.4535 27.3803 23.7395 27.2852 24.0489 27.0417L23.7512 26.5424C23.5184 26.7091 23.274 26.7982 23.0043 26.7982C22.5095 26.7921 22.1456 26.4357 22.1456 25.8888C22.1456 25.342 22.5095 24.9857 23.0043 24.9795C23.2733 24.9795 23.5177 25.0686 23.7512 25.2352L24.0489 24.736C23.739 24.4925 23.4529 24.3973 23.0241 24.3973C22.1053 24.3973 21.5033 25.027 21.5033 25.8888ZM29.4946 24.3973C29.137 24.3973 28.9041 24.564 28.7431 24.8135V24.4691H28.1287V27.3092H28.7493V25.7172C28.7493 25.2472 28.952 24.986 29.3572 24.986C29.4899 24.9841 29.6217 25.0084 29.7449 25.0575L29.9359 24.4754C29.7987 24.4215 29.6198 24.3978 29.4943 24.3978M12.8788 24.695C12.5806 24.4991 12.1696 24.3978 11.7163 24.3978C10.9941 24.3978 10.5291 24.7427 10.5291 25.307C10.5291 25.7701 10.8753 26.0558 11.5127 26.1449L11.8056 26.1865C12.1455 26.2341 12.306 26.3232 12.306 26.4836C12.306 26.7032 12.0802 26.8285 11.6562 26.8285C11.2268 26.8285 10.917 26.6918 10.708 26.5314L10.4168 27.013C10.7567 27.2625 11.186 27.3815 11.651 27.3815C12.4743 27.3815 12.9514 26.9953 12.9514 26.4545C12.9514 25.9553 12.5759 25.6941 11.9555 25.605L11.6633 25.5628C11.395 25.5282 11.1799 25.4744 11.1799 25.284C11.1799 25.0764 11.3826 24.9514 11.7227 24.9514C12.0866 24.9514 12.4388 25.0881 12.6115 25.1949L12.8798 24.6957L12.8788 24.695ZM20.8772 24.3984C20.5196 24.3984 20.2866 24.565 20.1263 24.8145V24.4691H19.512V27.3092H20.1319V25.7172C20.1319 25.2472 20.3346 24.986 20.7398 24.986C20.8725 24.9841 21.0042 25.0084 21.1275 25.0575L21.3185 24.4754C21.1813 24.4215 21.0024 24.3978 20.8768 24.3978M15.5874 24.4691H14.5738V23.6075H13.9471V24.4691H13.3689V25.0336H13.9471V26.3292C13.9471 26.9882 14.2038 27.3807 14.9371 27.3807C15.2062 27.3807 15.516 27.2976 15.7126 27.1611L15.5336 26.6322C15.3486 26.739 15.1459 26.7928 14.9847 26.7928C14.6749 26.7928 14.5738 26.6025 14.5738 26.3175V25.0341H15.5874V24.4691ZM6.3197 27.3099V25.5275C6.3197 24.8562 5.89035 24.4046 5.19821 24.3985C4.83434 24.3925 4.459 24.5053 4.19621 24.9038C3.9996 24.5889 3.68975 24.3985 3.25414 24.3985C2.94967 24.3985 2.65215 24.4876 2.41923 24.8202V24.4691H1.79883V27.3092H2.4241V25.7345C2.4241 25.2414 2.69852 24.9795 3.12231 24.9795C3.53395 24.9795 3.7422 25.2468 3.7422 25.7282V27.3089H4.36886V25.7341C4.36886 25.2411 4.65492 24.9791 5.06638 24.9791C5.48965 24.9791 5.69165 25.2465 5.69165 25.7279V27.3085L6.3197 27.3099Z" fill="#231F20"/>
<path id="Vector_2" d="M34.4062 17.8632V17.4479H34.2976L34.1721 17.7329L34.0472 17.4479H33.9383V17.8632H34.0154V17.5503L34.1328 17.8203H34.2127L34.3301 17.5496V17.8632H34.4065H34.4062ZM33.7175 17.8632V17.519H33.8565V17.4489H33.5015V17.519H33.6404V17.8632H33.7168H33.7175Z" fill="#F79410"/>
<path id="Vector_3" d="M22.0683 19.6442H12.6743V2.82385H22.0685L22.0683 19.6442Z" fill="#FF5F00"/>
<path id="Vector_4" d="M13.2696 11.234C13.2696 7.822 14.8731 4.78257 17.37 2.82382C15.4799 1.33897 13.1423 0.533089 10.7353 0.536633C4.80624 0.536633 0 5.32594 0 11.234C0 17.1421 4.80624 21.9314 10.7353 21.9314C13.1423 21.935 15.4801 21.1291 17.3701 19.6442C14.8734 17.6858 13.2696 14.6462 13.2696 11.234Z" fill="#EB001B"/>
<path id="Vector_5" d="M34.7415 11.2341C34.7415 17.1422 29.9353 21.9315 24.0062 21.9315C21.5989 21.935 19.2609 21.1292 17.3705 19.6443C19.8681 17.6856 21.4716 14.6463 21.4716 11.2341C21.4716 7.82195 19.8681 4.78269 17.3705 2.82394C19.2609 1.33914 21.5988 0.533274 24.006 0.536754C29.9351 0.536754 34.7413 5.32606 34.7413 11.2341" fill="#F79E1B"/>
</g>
<defs>
<clipPath id="clip0_131_1331">
<rect width="34.7372" height="26.9264" fill="white" transform="translate(0 0.536743)"/>
</clipPath>
</defs>
</svg>
