<svg width="53" height="24" viewBox="0 0 53 24" fill="none" xmlns="http://www.w3.org/2000/svg">
<g id="Frame 14373" clip-path="url(#clip0_131_1371)">
<g id="Page-1">
<g id="Artboard">
<g id="Group">
<path id="Combined-Shape" d="M38.1575 11.6082V19.6179H42.6074V14.8714H47.6506C49.7717 14.8566 51.5739 13.4993 52.2562 11.6082H38.1575Z" fill="#37A72E"/>
<path id="Combined-Shape_1_" d="M37.5645 5.00781C37.8241 8.27847 40.9242 10.8668 44.7066 10.8668C44.7214 10.8668 52.4419 10.8668 52.4419 10.8668C52.5012 10.5702 52.5309 10.2587 52.5309 9.93975C52.5309 7.22533 50.3431 5.03006 47.6361 5.00781H37.5645Z" fill="url(#paint0_linear_131_1371)"/>
<path id="Combined-Shape_2_" d="M30.979 10.7852C31.031 10.6962 31.1125 10.6443 31.2164 10.6443C31.3647 10.6443 31.476 10.763 31.4834 10.9039V19.5441H35.9332V5.00781H31.4834C30.9197 5.03006 30.2819 5.43797 30.0446 5.9497L26.5069 13.5441C26.4995 13.5738 26.4847 13.6035 26.4698 13.6331C26.4179 13.7073 26.3289 13.7592 26.2251 13.7592C26.0619 13.7592 25.9284 13.6257 25.9284 13.4626V5.00781H21.4786V19.5441H25.9284C26.4847 19.5144 27.1077 19.1065 27.345 18.6022L30.979 10.8075C30.9716 10.8001 30.979 10.7926 30.979 10.7852Z" fill="#37A72E"/>
<path id="Combined-Shape_3_" d="M14.3658 11.037L11.7626 19.5437H8.55874L5.96299 11.0296C5.94074 10.8961 5.82207 10.7922 5.67374 10.7922C5.51058 10.7922 5.3845 10.9257 5.3845 11.0815V19.5362H0.934631V5H4.7541H5.88882C6.70463 5 7.56494 5.63782 7.80227 6.41654L9.96787 13.4993C10.0791 13.8552 10.2497 13.8478 10.3609 13.4993L12.5265 6.41654C12.7639 5.6304 13.6242 5 14.44 5H15.5747H19.3942V19.5362H14.9443V11.0815C14.9443 11.0815 14.9443 11.0815 14.9443 11.0741C14.9443 10.9109 14.8108 10.7848 14.6551 10.7848C14.5067 10.7922 14.3881 10.8961 14.3658 11.037Z" fill="#37A72E"/>
</g>
</g>
</g>
</g>
<defs>
<linearGradient id="paint0_linear_131_1371" x1="37.5663" y1="7.93732" x2="52.53" y2="7.93732" gradientUnits="userSpaceOnUse">
<stop stop-color="#00A0E5"/>
<stop offset="1" stop-color="#0077C3"/>
</linearGradient>
<clipPath id="clip0_131_1371">
<rect width="52" height="24" fill="white" transform="translate(0.934631)"/>
</clipPath>
</defs>
</svg>
