<svg width="14" height="15" viewBox="0 0 14 15" fill="none" xmlns="http://www.w3.org/2000/svg">
<g id="&#208;&#184;&#208;&#186;&#208;&#190;&#208;&#189;&#208;&#186;&#208;&#176;/&#209;&#130;&#208;&#181;&#208;&#187;&#208;&#181;&#209;&#132;&#208;&#190;&#208;&#189; ">
<path id="Vector" d="M13.326 9.91215L10.0283 8.43444L10.0192 8.43023C9.84798 8.35701 9.66122 8.32763 9.47581 8.34474C9.2904 8.36185 9.11218 8.42492 8.95727 8.52824C8.93903 8.54028 8.9215 8.55337 8.90477 8.56744L7.20096 10.02C6.12155 9.49565 5.00714 8.38963 4.48284 7.32422L5.93745 5.59451C5.95145 5.57701 5.96475 5.55951 5.97735 5.54061C6.07845 5.38612 6.13979 5.20903 6.15591 5.0251C6.17203 4.84118 6.14243 4.65612 6.06975 4.4864V4.478L4.58784 1.17466C4.49176 0.952948 4.32654 0.768251 4.11687 0.648147C3.90719 0.528042 3.66429 0.478971 3.42443 0.508258C2.4759 0.633074 1.60524 1.0989 0.975067 1.81874C0.34489 2.53857 -0.00170866 3.46319 6.33409e-06 4.4199C6.33409e-06 9.97795 4.52204 14.5 10.0801 14.5C11.0368 14.5017 11.9614 14.1551 12.6812 13.5249C13.4011 12.8948 13.8669 12.0241 13.9917 11.0756C14.021 10.8358 13.9721 10.5929 13.8521 10.3833C13.7321 10.1736 13.5476 10.0083 13.326 9.91215ZM10.0801 13.38C7.70452 13.3774 5.427 12.4325 3.74722 10.7528C2.06745 9.07299 1.12261 6.79546 1.12001 4.4199C1.11738 3.73633 1.36365 3.07518 1.81283 2.55991C2.26202 2.04465 2.8834 1.7105 3.56093 1.61987C3.56066 1.62266 3.56066 1.62548 3.56093 1.62827L5.03094 4.9183L3.58403 6.65012C3.56935 6.66702 3.55601 6.68504 3.54413 6.70402C3.43879 6.86566 3.37699 7.05178 3.36473 7.24433C3.35247 7.43688 3.39015 7.62933 3.47413 7.80303C4.10834 9.10014 5.41524 10.3973 6.72635 11.0308C6.90133 11.114 7.0949 11.1503 7.28814 11.1363C7.48138 11.1224 7.66769 11.0585 7.82886 10.951C7.84683 10.9389 7.86413 10.9258 7.88066 10.9118L9.58237 9.45995L12.8724 10.9335C12.8724 10.9335 12.878 10.9335 12.8801 10.9335C12.7906 11.612 12.4569 12.2346 11.9416 12.6849C11.4262 13.1352 10.7644 13.3823 10.0801 13.38Z" fill="#434343"/>
</g>
</svg>
