<svg width="46" height="22" viewBox="0 0 46 22" fill="none" xmlns="http://www.w3.org/2000/svg">
<g id="Frame 14372">
<rect x="0.509094" y="0.36853" width="45.4255" height="21.263" rx="10.6315" fill="#219F38"/>
<g id="Pay">
<path d="M21.389 7.35681H24.644C26.2853 7.35681 27.4165 8.4492 27.4165 10.0961C27.4165 11.7374 26.2465 12.8354 24.5608 12.8354H23.0636V15.3584H21.389V7.35681ZM23.0636 8.68209V11.5267H24.1948C25.1541 11.5267 25.7142 11.0166 25.7142 10.1016C25.7142 9.19224 25.1597 8.68209 24.2003 8.68209H23.0636Z" fill="white"/>
<path d="M30.178 14.2827C30.8822 14.2827 31.4644 13.8224 31.4644 13.1792V12.7467L30.2112 12.8243C29.6068 12.8686 29.263 13.1404 29.263 13.5618C29.263 14.0054 29.629 14.2827 30.178 14.2827ZM29.6456 15.4527C28.5144 15.4527 27.6549 14.7207 27.6549 13.6505C27.6549 12.5692 28.4867 11.9426 29.9673 11.8539L31.4644 11.7652V11.3715C31.4644 10.817 31.0763 10.4953 30.4663 10.4953C29.8619 10.4953 29.4793 10.7948 29.4017 11.2328H27.9211C27.9821 10.0795 28.9636 9.28651 30.5384 9.28651C32.0633 9.28651 33.0559 10.0739 33.0559 11.2717V15.3584H31.4922V14.449H31.4589C31.1262 15.0811 30.3887 15.4527 29.6456 15.4527Z" fill="white"/>
<path d="M34.8303 17.5598C34.7749 17.5598 34.2703 17.5543 34.2204 17.5432V16.2955C34.2703 16.3066 34.5642 16.3066 34.6252 16.3066C35.2185 16.3066 35.5124 16.1181 35.6233 15.6467C35.6233 15.6246 35.6843 15.3861 35.6732 15.3639L33.6049 9.41405H35.3848L36.6491 14.0608H36.6768L37.9411 9.41405H39.649L37.6029 15.4915C37.0927 17.0164 36.3497 17.5598 34.8303 17.5598Z" fill="white"/>
</g>
<g id="Ellipse 187">
<path d="M15.0451 6.72824C13.9095 5.59262 12.1187 5.27226 10.7802 5.38773C9.44165 5.50321 8.18023 6.06321 7.19679 6.97856C6.21334 7.89391 5.56443 9.11197 5.35337 10.4388C5.14231 11.7656 5.38124 13.1249 6.03212 14.3003C6.683 15.4756 7.7084 16.3993 8.94504 16.9245C10.1817 17.4496 11.5585 17.5458 12.8561 17.1979C14.1538 16.85 15.2978 16.0779 16.1059 15.0046C16.914 13.9313 17.5435 11.725 17.0893 10.2487L15.7944 11.3028C15.8126 12.3066 15.4944 13.2876 14.8906 14.0896C14.2867 14.8916 13.4319 15.4686 12.4622 15.7285C11.4925 15.9885 10.4637 15.9166 9.53963 15.5242C8.61555 15.1318 7.84933 14.4415 7.36296 13.5633C6.87659 12.685 6.69805 11.6693 6.85576 10.6778C7.01348 9.68632 7.49838 8.77612 8.23325 8.09213C8.96813 7.40813 9.91072 6.98968 10.9109 6.90339C11.9112 6.8171 12.9115 7.06794 13.7527 7.61597L15.0451 6.72824Z" fill="white"/>
<path d="M9.02623 9.79448L11.1839 11.1572L15.9536 7.75033L16.635 8.88597L11.1839 12.9743L9.02623 11.6115V9.79448Z" fill="white"/>
</g>
</g>
</svg>
