<svg width="52" height="24" viewBox="0 0 52 24" fill="none" xmlns="http://www.w3.org/2000/svg">
<g id="sbp 1" clip-path="url(#clip0_131_1345)">
<path id="Vector" d="M45.2681 6.9285V12.7075H43.0521V8.65365H40.9185V12.7075H38.7025V6.9281H45.2681V6.9285Z" fill="black"/>
<path id="Vector_2" fill-rule="evenodd" clip-rule="evenodd" d="M34.1513 12.9139C36.1353 12.9139 37.6083 11.7813 37.6083 10.0644C37.6083 8.40245 36.5215 7.32338 34.7051 7.32338C33.8668 7.32338 33.1752 7.59817 32.6542 8.07231C32.7785 7.09233 33.6684 6.37689 34.6482 6.37689C34.8743 6.37689 36.5767 6.37354 36.5767 6.37354L37.5392 4.65784C37.5392 4.65784 35.4021 4.70314 34.4086 4.70314C32.1385 4.74018 30.6051 6.66173 30.6051 8.99536C30.6051 11.7145 32.1006 12.9141 34.1516 12.9141L34.1513 12.9139ZM34.1636 8.8429C34.9002 8.8429 35.4108 9.29359 35.4108 10.0642C35.4108 10.7576 34.9571 11.3292 34.1636 11.3308C33.4047 11.3308 32.894 10.8013 32.894 10.076C32.894 9.30521 33.4047 8.8429 34.1636 8.8429Z" fill="black"/>
<path id="Vector_3" d="M28.8011 10.7729C28.8011 10.7729 28.2778 11.0538 27.496 11.1069C26.5976 11.1318 25.797 10.6033 25.797 9.66425C25.797 8.74829 26.5035 8.22334 27.4735 8.22334C28.0683 8.22334 28.8552 8.60726 28.8552 8.60726C28.8552 8.60726 29.431 7.62334 29.7292 7.13128C29.1831 6.74578 28.4556 6.53442 27.6095 6.53442C25.4742 6.53442 23.8203 7.83095 23.8203 9.65263C23.8203 11.4976 25.3748 12.7639 27.6095 12.7255C28.2342 12.7039 29.0959 12.4998 29.6212 12.1856L28.8011 10.7729Z" fill="black"/>
<path id="Vector_4" d="M1.55286 5.32666L4.62676 10.4432V13.5642L1.55645 18.6707L1.55286 5.32666Z" fill="#5B57A2"/>
<path id="Vector_5" d="M13.3557 8.58101L16.2361 6.93701L22.1309 6.93188L13.3557 11.938V8.58101Z" fill="#D90751"/>
<path id="Vector_6" d="M13.3391 5.29616L13.3554 12.0703L10.2743 10.3074V0.181152L13.3391 5.29616Z" fill="#FAB718"/>
<path id="Vector_7" d="M22.1306 6.93189L16.2356 6.93701L13.3391 5.29616L10.2743 0.181152L22.1306 6.93189Z" fill="#ED6F26"/>
<path id="Vector_8" d="M13.3556 18.6983V15.4116L10.2745 13.6821L10.2762 23.8184L13.3556 18.6983Z" fill="#63B22F"/>
<path id="Vector_9" d="M16.2286 17.0701L4.62655 10.4432L1.55286 5.32666L22.1181 17.0634L16.2286 17.0701Z" fill="#1487C9"/>
<path id="Vector_10" d="M10.2765 23.8187L13.3555 18.6986L16.2286 17.0696L22.1182 17.0629L10.2765 23.8187Z" fill="#017F36"/>
<path id="Vector_11" d="M1.55667 18.6703L10.2997 13.6828L7.36033 12.0033L4.62698 13.5638L1.55667 18.6703Z" fill="#984995"/>
<g id="Group">
<path id="Vector_12" d="M25.7979 16.597C25.7302 16.6773 25.6411 16.738 25.5343 16.779C25.4247 16.8205 25.3074 16.8417 25.1891 16.8412C25.0714 16.8427 24.9544 16.8244 24.8437 16.7873C24.7442 16.7536 24.6533 16.7012 24.5767 16.6332C24.5011 16.5651 24.4417 16.483 24.4024 16.3921C24.3599 16.2925 24.3387 16.1861 24.34 16.0789C24.34 15.9725 24.3597 15.874 24.4005 15.7809C24.4379 15.6907 24.4948 15.6086 24.5676 15.5398C24.6403 15.4714 24.7261 15.4164 24.8206 15.3777C24.9186 15.3383 25.0254 15.317 25.1428 15.317C25.2693 15.317 25.3867 15.3318 25.4935 15.3611C25.6003 15.3907 25.691 15.4399 25.7657 15.5088L25.6358 15.7137C25.573 15.6607 25.499 15.6204 25.4186 15.5955C25.3421 15.5726 25.2621 15.561 25.1817 15.5612C25.1108 15.5612 25.0431 15.5742 24.9774 15.5987C24.9125 15.623 24.8533 15.6587 24.8028 15.7039C24.7513 15.7502 24.7107 15.806 24.6835 15.8677C24.6529 15.935 24.6377 16.0075 24.6391 16.0805C24.6391 16.161 24.655 16.2331 24.6852 16.2952C24.7157 16.3594 24.7565 16.4134 24.8079 16.4593C24.8597 16.5054 24.92 16.5396 24.9896 16.5627C25.0602 16.5872 25.1351 16.5995 25.2105 16.5987C25.3065 16.5987 25.3939 16.5806 25.4685 16.5461C25.5425 16.5129 25.609 16.4667 25.6644 16.4102L25.7979 16.597ZM26.1644 16.8068V15.3481H26.4458V16.4349L27.3606 15.3481H27.642V16.8069H27.3606V15.7202L26.4458 16.8069L26.1644 16.8068ZM29.5055 16.597C29.4363 16.678 29.3455 16.7408 29.2422 16.779C29.1325 16.8205 29.0151 16.8417 28.8967 16.8412C28.7791 16.8427 28.6622 16.8244 28.5515 16.7873C28.452 16.7536 28.3611 16.7012 28.2844 16.6332C28.2087 16.5651 28.1493 16.483 28.1101 16.3921C28.0675 16.2925 28.0463 16.1861 28.0477 16.0789C28.0477 15.9725 28.0673 15.874 28.1082 15.7809C28.1475 15.6873 28.2044 15.6071 28.2753 15.5398C28.3479 15.4714 28.4337 15.4164 28.5283 15.3777C28.6297 15.3361 28.7396 15.3154 28.8504 15.317C28.9769 15.317 29.0943 15.3318 29.2011 15.3611C29.3079 15.3907 29.3987 15.4399 29.4736 15.5088L29.3435 15.7137C29.2808 15.6607 29.2068 15.6204 29.1265 15.5955C29.0499 15.5726 28.97 15.561 28.8895 15.5612C28.7482 15.5617 28.6125 15.6128 28.5105 15.7039C28.4594 15.7505 28.4188 15.8062 28.3912 15.8677C28.3605 15.935 28.3454 16.0075 28.3468 16.0805C28.3468 16.161 28.3628 16.2331 28.3931 16.2952C28.4233 16.3594 28.4642 16.4134 28.5158 16.4593C28.5674 16.5054 28.6279 16.5396 28.6975 16.5627C28.7669 16.5855 28.8398 16.5987 28.9181 16.5987C29.0143 16.5987 29.0998 16.5806 29.1762 16.5461C29.2502 16.5129 29.3166 16.4667 29.372 16.4102L29.5055 16.597ZM29.6498 15.3481H31.0932V15.6071H30.513V16.8068H30.2317V15.6071H29.6515V15.3481H29.6498Z" fill="black"/>
<path id="Vector_13" fill-rule="evenodd" clip-rule="evenodd" d="M32.4071 16.7927C32.5139 16.7616 32.6046 16.7139 32.6829 16.6485L32.5974 16.4452C32.5458 16.488 32.4764 16.524 32.3929 16.5536C32.3091 16.5831 32.2148 16.5977 32.1116 16.5977C31.9567 16.5977 31.8285 16.5601 31.727 16.483C31.6255 16.4058 31.5705 16.2979 31.5578 16.16H32.7755C32.7885 16.1024 32.7944 16.0436 32.7933 15.9847C32.7946 15.8911 32.7746 15.7984 32.7345 15.7126C32.6981 15.6331 32.6448 15.5611 32.578 15.5011C32.5102 15.4416 32.4303 15.3954 32.343 15.3652C32.2516 15.3322 32.1544 15.3154 32.0563 15.3159C31.9246 15.3159 31.8089 15.3372 31.7073 15.3766C31.6116 15.4142 31.525 15.4694 31.4529 15.5389C31.3827 15.6081 31.3288 15.6902 31.2946 15.7798C31.257 15.8753 31.2383 15.9763 31.2394 16.078C31.2394 16.1929 31.2606 16.2977 31.2999 16.3912C31.338 16.4819 31.3962 16.564 31.4708 16.6322C31.5438 16.6991 31.6327 16.7501 31.7378 16.7862C31.8503 16.8234 31.9691 16.8416 32.0885 16.8402C32.1966 16.8395 32.3041 16.8234 32.4071 16.7927ZM31.6951 15.6699C31.7822 15.5962 31.8979 15.5602 32.0439 15.5602C32.1809 15.5602 32.2913 15.5947 32.3715 15.6636C32.4517 15.7323 32.4942 15.8275 32.5014 15.9486H31.5402C31.5538 15.8414 31.6089 15.7422 31.6951 15.6699Z" fill="black"/>
<path id="Vector_14" d="M33.1762 15.3484H33.4325L34.0413 16.0713L34.6179 15.3484H34.8671V16.8072H34.5858V15.7435L34.0377 16.4204H34.0269L33.4575 15.7433V16.807H33.1762V15.3484Z" fill="black"/>
<path id="Vector_15" fill-rule="evenodd" clip-rule="evenodd" d="M35.6319 15.3533C35.5466 15.374 35.4651 15.4066 35.3901 15.4498L35.4648 15.6566C35.5289 15.6271 35.593 15.6024 35.6571 15.5812C35.7212 15.5595 35.803 15.5497 35.901 15.5497C35.9793 15.5497 36.0417 15.5615 36.0897 15.5843C36.1377 15.6056 36.1732 15.6385 36.1982 15.6779C36.2231 15.7173 36.2392 15.7663 36.2481 15.8237C36.257 15.881 36.2606 15.9432 36.2606 16.0106C36.203 15.9732 36.1373 15.948 36.0681 15.9367C36.0013 15.9244 35.9335 15.9178 35.8654 15.917C35.7817 15.917 35.7034 15.9286 35.6285 15.9481C35.5539 15.9678 35.4898 15.9974 35.4382 16.0368C35.3854 16.0761 35.3428 16.1259 35.3134 16.1826C35.2821 16.2446 35.2663 16.3124 35.2673 16.3809C35.2673 16.5235 35.3117 16.635 35.4005 16.7138C35.4898 16.7924 35.6072 16.8316 35.7531 16.8316C35.8849 16.8316 35.99 16.8103 36.07 16.7678C36.1502 16.725 36.2143 16.676 36.2604 16.62V16.8088H36.5239V15.9139C36.5239 15.7236 36.4795 15.5762 36.3886 15.4726C36.2997 15.3696 36.1411 15.317 35.9168 15.317C35.8172 15.317 35.7227 15.3302 35.6319 15.3533ZM36.1024 16.5351C36.0383 16.5777 35.9543 16.5972 35.8513 16.5972C35.7603 16.5972 35.6892 16.5759 35.6395 16.535C35.5896 16.4924 35.5647 16.4365 35.5647 16.3675C35.5647 16.3269 35.5735 16.2925 35.5932 16.2611C35.6129 16.2298 35.6395 16.2056 35.6698 16.1859C35.7029 16.1653 35.7396 16.1503 35.7783 16.1416C35.8193 16.1317 35.8602 16.1268 35.9029 16.1268C36.0419 16.1268 36.161 16.1579 36.2589 16.2233V16.4085C36.2128 16.4567 36.1601 16.4994 36.1024 16.5351ZM39.0073 14.8352C39.0642 14.8108 39.1172 14.7698 39.1674 14.7091L39.0142 14.5043C38.9751 14.5535 38.9307 14.5878 38.8808 14.6059C38.8279 14.6252 38.773 14.6394 38.717 14.6485L38.6637 14.6573C38.6172 14.6648 38.5677 14.6731 38.5142 14.6814C38.4284 14.6961 38.3447 14.7203 38.265 14.7535C38.1385 14.8043 38.0372 14.873 37.9604 14.9599C37.8836 15.0468 37.8236 15.1451 37.7825 15.2534C37.7409 15.3631 37.7129 15.4769 37.699 15.5926C37.6846 15.7108 37.6776 15.8237 37.6776 15.9318C37.6776 16.0713 37.6971 16.1973 37.7362 16.3104C37.7755 16.4237 37.8305 16.5186 37.9033 16.5956C37.9765 16.6744 38.0638 16.7335 38.1671 16.7761C38.2703 16.8186 38.386 16.8399 38.5159 16.8399C38.6352 16.8399 38.7456 16.8186 38.8452 16.7792C38.9413 16.7414 39.0284 16.6863 39.1016 16.6171C39.1727 16.5497 39.2298 16.4694 39.2687 16.3793C39.3096 16.2879 39.3302 16.1898 39.3294 16.0908C39.3294 15.981 39.3116 15.8812 39.2778 15.7925C39.2466 15.708 39.1969 15.6305 39.1318 15.5648C39.0666 15.5003 38.987 15.4498 38.8985 15.4171C38.8011 15.3813 38.6972 15.3636 38.5925 15.3647C38.5248 15.3647 38.459 15.373 38.3949 15.3893C38.3325 15.4057 38.2727 15.4294 38.2168 15.4598C38.1625 15.4888 38.1128 15.5246 38.0691 15.5662C38.0264 15.6074 37.9909 15.6533 37.9659 15.7057H37.9587C37.9639 15.6363 37.974 15.5673 37.989 15.4992C38.005 15.4287 38.0281 15.3613 38.0586 15.2975C38.0888 15.2337 38.1279 15.1762 38.176 15.1238C38.2274 15.0709 38.2906 15.029 38.361 15.0009C38.4385 14.9665 38.5205 14.9417 38.6049 14.9272L38.6608 14.9177C38.7164 14.9083 38.7695 14.8992 38.8203 14.8894C38.888 14.8764 38.9501 14.8596 39.0073 14.8352ZM38.0173 16.2367C37.9899 16.154 37.9767 16.0676 37.9784 15.981C37.9903 15.9313 38.012 15.8841 38.0425 15.8418C38.0738 15.7967 38.1129 15.7568 38.1582 15.7236C38.2627 15.6473 38.392 15.6063 38.5248 15.6074C38.6904 15.6074 38.815 15.6546 38.9021 15.7484C38.9895 15.8433 39.0322 15.9611 39.0322 16.104C39.0322 16.1745 39.0178 16.2385 38.9931 16.2974C38.969 16.3555 38.9326 16.4085 38.8861 16.4533C38.8396 16.4981 38.7839 16.5337 38.7223 16.558C38.6584 16.5842 38.5889 16.5974 38.5106 16.5974C38.4323 16.5974 38.361 16.5826 38.2953 16.5531C38.2299 16.5241 38.1721 16.4822 38.126 16.4302C38.0778 16.3722 38.041 16.3067 38.0175 16.2367H38.0173ZM41.4868 15.3483H41.2054V16.8072H41.4868V15.3483ZM39.7351 15.3483H40.0164V15.786H40.2764C40.3991 15.786 40.4985 15.8008 40.5789 15.8286C40.6591 15.8565 40.7232 15.8942 40.7712 15.9401C40.8192 15.986 40.853 16.0401 40.8727 16.1006C40.8922 16.1613 40.903 16.2235 40.903 16.2891C40.903 16.3547 40.8922 16.4172 40.8691 16.4794C40.8477 16.5416 40.8103 16.5956 40.7604 16.6449C40.7107 16.6941 40.643 16.7335 40.5573 16.7631C40.4721 16.7924 40.3689 16.8088 40.2443 16.8088H39.7334V15.3483H39.7351ZM40.0164 16.0299V16.5645H40.2212C40.3619 16.5645 40.4615 16.5416 40.5184 16.4956C40.5755 16.4497 40.6039 16.3843 40.6039 16.2974C40.6039 16.2087 40.5736 16.1418 40.5167 16.0957C40.4579 16.0498 40.36 16.0267 40.2248 16.0267H40.0164V16.0299Z" fill="black"/>
<path id="Vector_16" d="M43.3472 16.597C43.2795 16.6773 43.1904 16.738 43.0836 16.779C42.974 16.8205 42.8567 16.8417 42.7384 16.8412C42.6207 16.8427 42.5037 16.8244 42.393 16.7873C42.2935 16.7537 42.2026 16.7012 42.126 16.6332C42.0504 16.5651 41.9909 16.483 41.9515 16.3921C41.9092 16.2925 41.888 16.1861 41.8893 16.0789C41.8893 15.9725 41.9088 15.874 41.9498 15.7809C41.9872 15.6907 42.0441 15.6086 42.1169 15.5398C42.1884 15.4708 42.2735 15.4186 42.3699 15.3777C42.4714 15.336 42.5813 15.3153 42.6921 15.317C42.8184 15.317 42.936 15.3318 43.0428 15.3611C43.1496 15.3907 43.2404 15.4399 43.315 15.5088L43.1852 15.7137C43.1223 15.6607 43.0484 15.6204 42.9679 15.5955C42.8914 15.5726 42.8114 15.561 42.731 15.5612C42.6601 15.5612 42.5925 15.5742 42.5265 15.5987C42.4617 15.623 42.4025 15.6588 42.3522 15.7039C42.301 15.7505 42.2604 15.8062 42.2329 15.8677C42.2022 15.935 42.187 16.0075 42.1884 16.0805C42.1884 16.161 42.2043 16.2331 42.2346 16.2952C42.2648 16.3594 42.3058 16.4134 42.3572 16.4593C42.4091 16.5054 42.4693 16.5396 42.5389 16.5627C42.6085 16.5855 42.6815 16.5987 42.7598 16.5987C42.849 16.5998 42.9373 16.5818 43.0178 16.5461C43.0918 16.5129 43.1583 16.4667 43.2137 16.4102L43.3472 16.597ZM43.491 15.3481H44.9349V15.6071H44.3545V16.8068H44.0731V15.6071H43.4931V15.3481H43.491Z" fill="black"/>
<path id="Vector_17" fill-rule="evenodd" clip-rule="evenodd" d="M45.5222 15.3479H45.2408V17.4556H45.5222V16.7394C45.5791 16.7739 45.6468 16.7985 45.725 16.8149C45.8033 16.8312 45.8852 16.8393 45.9689 16.8393C46.0935 16.8393 46.2056 16.818 46.3072 16.7788C46.4045 16.74 46.4928 16.6838 46.5669 16.6134C46.6405 16.5418 46.6973 16.4569 46.734 16.364C46.7734 16.2675 46.793 16.164 46.793 16.0543C46.793 15.946 46.7753 15.8461 46.7414 15.7559C46.7095 15.6702 46.66 15.5912 46.5955 15.5233C46.5322 15.457 46.4536 15.4049 46.3657 15.3708C46.2696 15.3323 46.1658 15.3133 46.0611 15.3151C45.9512 15.3151 45.8479 15.3347 45.75 15.3741C45.6521 15.4135 45.5755 15.4608 45.5222 15.5199V15.3479ZM45.7181 15.6184C45.7982 15.579 45.8852 15.5593 45.9797 15.5593C46.0616 15.5593 46.1345 15.5707 46.2005 15.5954C46.2646 15.62 46.3179 15.6544 46.3626 15.7003C46.407 15.7462 46.4408 15.7988 46.462 15.8609C46.4853 15.9231 46.4958 15.9905 46.4958 16.0642C46.4958 16.143 46.4817 16.2133 46.4569 16.2789C46.4336 16.3411 46.3965 16.398 46.3482 16.4461C46.2996 16.4936 46.2408 16.531 46.1756 16.5558C46.1029 16.5842 46.0247 16.5981 45.9459 16.5968C45.8695 16.5968 45.7982 16.5887 45.7305 16.5724C45.6564 16.5536 45.5861 16.5237 45.5224 16.4837V15.7608C45.5721 15.7053 45.6381 15.6578 45.7181 15.6184ZM48.9502 15.3477H48.6688V16.8066H48.9502V15.3477ZM47.197 15.3477H47.4784V15.7854H47.7381C47.8608 15.7854 47.9607 15.8002 48.0406 15.828C48.121 15.856 48.1851 15.8936 48.2331 15.9395C48.2811 15.9854 48.315 16.0395 48.3344 16.1C48.3541 16.1607 48.3647 16.2229 48.3647 16.2885C48.3647 16.3541 48.3541 16.4166 48.3308 16.4788C48.3097 16.5411 48.2722 16.595 48.2223 16.6443C48.1726 16.6935 48.1049 16.7329 48.0193 16.7625C47.934 16.7918 47.8308 16.8082 47.7062 16.8082H47.1954V15.3477H47.197ZM47.4803 16.0293V16.5639H47.685C47.8255 16.5639 47.9253 16.5411 47.9822 16.495C48.0391 16.4491 48.0677 16.3837 48.0677 16.2968C48.0677 16.2082 48.0374 16.1412 47.9805 16.0951C47.9217 16.0492 47.8238 16.0262 47.6886 16.0262H47.4803V16.0293Z" fill="black"/>
<path id="Vector_18" d="M50.2996 16.0516L50.9012 16.8072H50.556L50.0913 16.2171L49.6196 16.8072H49.2921L49.8901 16.0646L49.3275 15.3484H49.6731L50.1021 15.8991L50.5378 15.3484H50.8657L50.2996 16.0516ZM25.5897 18.6102H24.7265V19.8264H24.4452V18.3677H25.8708V19.8264H25.5895L25.5897 18.6102ZM27.4675 18.6265H26.9122L26.8942 18.8724C26.8748 19.0806 26.8481 19.2478 26.8107 19.3755C26.7732 19.5035 26.7269 19.6018 26.6736 19.6705C26.6203 19.7395 26.5579 19.7868 26.4866 19.81C26.4131 19.8348 26.3353 19.8471 26.2571 19.8461L26.2357 19.5935C26.272 19.5943 26.308 19.587 26.3407 19.5723C26.38 19.5559 26.4189 19.5199 26.4564 19.4659C26.4938 19.4099 26.5276 19.3313 26.5579 19.2295C26.5881 19.1265 26.6078 18.9921 26.6184 18.8231L26.6469 18.3691H27.7488V19.8279H27.4675V18.6265Z" fill="black"/>
<path id="Vector_19" fill-rule="evenodd" clip-rule="evenodd" d="M28.5071 18.3715C28.4162 18.3943 28.3343 18.427 28.2649 18.468L28.3398 18.6747C28.4039 18.6451 28.468 18.6205 28.5319 18.5992C28.596 18.5779 28.6778 18.5681 28.7758 18.5681C28.854 18.5681 28.9164 18.5795 28.9645 18.6024C29.0127 18.6238 29.0482 18.6565 29.0732 18.6959C29.0979 18.7353 29.114 18.7846 29.1229 18.8417C29.1318 18.8992 29.1354 18.9615 29.1354 19.0286C29.0777 18.9913 29.012 18.9662 28.9429 18.955C28.8761 18.9426 28.8083 18.936 28.7402 18.9353C28.6567 18.9353 28.5782 18.9467 28.5033 18.9664C28.4287 18.9861 28.3646 19.0156 28.313 19.055C28.2602 19.0943 28.2176 19.1441 28.1882 19.2008C28.1569 19.2628 28.1413 19.3306 28.1423 19.3991C28.1423 19.5416 28.1867 19.6533 28.2755 19.7318C28.3644 19.8104 28.4822 19.8498 28.6281 19.8498C28.7599 19.8498 28.8648 19.8286 28.945 19.7858C29.025 19.7433 29.0888 19.694 29.1354 19.6381V19.8268H29.3989V18.9319C29.3989 18.7418 29.3543 18.5943 29.2636 18.4911C29.1745 18.3876 29.0161 18.3354 28.7919 18.3354C28.6957 18.3355 28.5999 18.3478 28.5071 18.3715ZM28.9788 19.553C28.915 19.5957 28.8312 19.6154 28.728 19.6154C28.6353 19.6154 28.5659 19.5942 28.5162 19.553C28.4663 19.5104 28.4414 19.4545 28.4414 19.3859C28.4414 19.345 28.4502 19.3105 28.4699 19.2794C28.4894 19.2483 28.5162 19.2236 28.5465 19.2039C28.5767 19.1842 28.614 19.1695 28.655 19.1596C28.6957 19.1498 28.7376 19.1449 28.7796 19.145C28.9183 19.145 29.0376 19.1762 29.1356 19.2416V19.4267C29.0893 19.4748 29.0367 19.5174 28.9788 19.553Z" fill="black"/>
<path id="Vector_20" d="M29.6745 18.3676H31.1182V18.6264H30.5378V19.826H30.2564V18.6264H29.6764V18.3676H29.6745Z" fill="black"/>
<path id="Vector_21" fill-rule="evenodd" clip-rule="evenodd" d="M32.4317 19.8112C32.5385 19.7801 32.6292 19.7324 32.7075 19.667L32.6221 19.4637C32.5704 19.5065 32.5011 19.5425 32.4173 19.5721C32.3337 19.6016 32.2394 19.6162 32.136 19.6162C31.9813 19.6162 31.8532 19.5786 31.7516 19.5016C31.6501 19.4245 31.5951 19.3164 31.5824 19.1785H32.8002C32.8124 19.1279 32.8179 19.0702 32.8179 19.0032C32.8179 18.9033 32.7983 18.8131 32.7591 18.7312C32.7227 18.6516 32.6694 18.5797 32.6024 18.5198C32.5347 18.4602 32.4549 18.4139 32.3676 18.3837C32.2762 18.3507 32.179 18.334 32.081 18.3345C31.9492 18.3345 31.8335 18.3557 31.7319 18.3951C31.6362 18.4326 31.5496 18.4878 31.4775 18.5574C31.4073 18.6267 31.3533 18.7087 31.3188 18.7983C31.2814 18.8939 31.2628 18.9949 31.2638 19.0966C31.2638 19.2114 31.285 19.3162 31.3243 19.4098C31.3637 19.5031 31.4223 19.5835 31.4952 19.6507C31.5682 19.7179 31.6573 19.7687 31.7624 19.8047C31.8749 19.842 31.9936 19.8603 32.1129 19.8589C32.218 19.8589 32.3249 19.8423 32.4317 19.8112ZM31.718 18.6869C31.8051 18.6132 31.9208 18.5771 32.0668 18.5771C32.2058 18.5771 32.3143 18.6132 32.3944 18.6804C32.4744 18.7493 32.5171 18.8442 32.5243 18.9656H31.5631C31.5767 18.8583 31.6318 18.7592 31.718 18.6869ZM32.955 18.3674H33.311L33.8538 19.0706L33.2736 19.826H32.9283L33.5369 19.0704L32.955 18.3674ZM33.9232 18.3674H34.2045V19.826H33.9232V18.3674ZM35.2101 19.826L34.5907 19.0704L35.1693 18.3672H34.8202L34.2739 19.0704L34.8613 19.826H35.2101ZM36.4953 19.8112C36.6021 19.7801 36.6929 19.7324 36.7711 19.667L36.6857 19.4637C36.6341 19.5065 36.5647 19.5425 36.4811 19.5721C36.3974 19.6016 36.303 19.6162 36.1998 19.6162C36.045 19.6162 35.9168 19.5786 35.8153 19.5016C35.7137 19.4245 35.6587 19.3164 35.646 19.1785H36.8638C36.8763 19.1279 36.8816 19.0702 36.8816 19.0032C36.8816 18.9033 36.8621 18.8131 36.8228 18.7312C36.7863 18.6517 36.7331 18.5798 36.6662 18.5198C36.5985 18.4602 36.5186 18.4139 36.4312 18.3837C36.3398 18.3507 36.2426 18.334 36.1446 18.3345C36.013 18.3345 35.8971 18.3557 35.7956 18.3951C35.6999 18.4326 35.6134 18.4879 35.5413 18.5574C35.471 18.6266 35.4169 18.7086 35.3827 18.7983C35.3452 18.8938 35.3265 18.9949 35.3277 19.0966C35.3277 19.2114 35.3488 19.3162 35.3882 19.4098C35.4273 19.5031 35.4861 19.5835 35.5591 19.6507C35.6321 19.7179 35.7209 19.7687 35.826 19.8047C35.9386 19.842 36.0573 19.8603 36.1768 19.8589C36.2849 19.8581 36.3923 19.8421 36.4953 19.8112ZM35.7816 18.6869C35.869 18.6132 35.9847 18.5771 36.1306 18.5771C36.2677 18.5771 36.3779 18.6132 36.4581 18.6804C36.5383 18.7493 36.5808 18.8442 36.588 18.9656H35.6268C35.6404 18.8583 35.6954 18.7592 35.7816 18.6869ZM38.0228 17.8773C37.8571 17.8773 37.7664 17.792 37.752 17.6216H37.487C37.487 17.687 37.4994 17.7461 37.5225 17.8018C37.5458 17.8576 37.5796 17.905 37.624 17.9444C37.6684 17.9838 37.7256 18.015 37.7911 18.0394C37.8571 18.064 37.9337 18.0754 38.0208 18.0754C38.0945 18.0768 38.1678 18.0645 38.2364 18.0394C38.3005 18.0165 38.3538 17.9838 38.4001 17.9444C38.4455 17.9043 38.4812 17.8557 38.505 17.8018C38.53 17.7461 38.5425 17.687 38.5425 17.6216H38.2791C38.2664 17.792 38.1793 17.8773 38.0228 17.8773ZM37.2625 18.3672V19.826H37.5439L38.4587 18.7393V19.826H38.74V18.3672H38.4587L37.5439 19.4539V18.3672H37.2625Z" fill="black"/>
</g>
</g>
<defs>
<clipPath id="clip0_131_1345">
<rect width="50.5642" height="23.6377" fill="white" transform="translate(0.944946 0.181152)"/>
</clipPath>
</defs>
</svg>
