<svg width="23" height="24" viewBox="0 0 23 24" fill="none" xmlns="http://www.w3.org/2000/svg">
<g id="&#208;&#184;&#208;&#186;&#208;&#190;&#208;&#189;&#208;&#186;&#208;&#176;/&#208;&#191;&#208;&#190;&#208;&#184;&#209;&#129;&#208;&#186;">
<path id="Union" fill-rule="evenodd" clip-rule="evenodd" d="M12.7842 16.3611C11.5229 17.1049 10.0522 17.5317 8.48184 17.5317C3.79745 17.5317 0 13.7342 0 9.04983C0 4.36544 3.79745 0.567993 8.48184 0.567993C13.1662 0.567993 16.9637 4.36544 16.9637 9.04983C16.9637 11.0797 16.2506 12.943 15.0614 14.403L19.1812 18.7648C19.7501 19.367 19.723 20.3164 19.1207 20.8852C18.5185 21.4541 17.5691 21.427 17.0003 20.8247L12.7842 16.3611ZM14.751 9.04983C14.751 12.5122 11.9442 15.319 8.48184 15.319C5.01946 15.319 2.21265 12.5122 2.21265 9.04983C2.21265 5.58746 5.01946 2.78065 8.48184 2.78065C11.9442 2.78065 14.751 5.58746 14.751 9.04983Z" fill="#9B9B9B"/>
</g>
</svg>
