<svg width="70" height="70" viewBox="0 0 70 70" fill="none" xmlns="http://www.w3.org/2000/svg">
<rect width="70" height="70" rx="10" fill="white"/>
<path fill-rule="evenodd" clip-rule="evenodd" d="M36.6805 27.1924C35.266 28.0526 33.6031 28.5484 31.8239 28.5484C26.6744 28.5484 22.5 24.3962 22.5 19.2742C22.5 14.1522 26.6744 10 31.8239 10C36.9733 10 41.1477 14.1522 41.1477 19.2742C41.1477 21.5459 40.3266 23.6268 38.9635 25.2393L43.4801 29.9956C44.0504 30.5963 44.0233 31.5431 43.4194 32.1104C42.8155 32.6777 41.8637 32.6507 41.2933 32.0501L36.6805 27.1924ZM38.7154 19.2742C38.7154 23.06 35.6299 26.129 31.8239 26.129C28.0178 26.129 24.9323 23.06 24.9323 19.2742C24.9323 15.4884 28.0178 12.4194 31.8239 12.4194C35.6299 12.4194 38.7154 15.4884 38.7154 19.2742Z" fill="#9B9B9B"/>
<path d="M23.4756 56H21.9512V47.4688H17.0156V56H15.4775V46.1357H23.4756V56ZM28.3428 56.1367C26.2852 56.1367 24.9316 54.7217 24.9316 52.4043C24.9316 50.0938 26.292 48.6787 28.3428 48.6787C30.3936 48.6787 31.7539 50.0938 31.7539 52.4043C31.7539 54.7217 30.4004 56.1367 28.3428 56.1367ZM28.3428 54.9199C29.5049 54.9199 30.25 54.0039 30.25 52.4043C30.25 50.8115 29.498 49.8955 28.3428 49.8955C27.1875 49.8955 26.4355 50.8115 26.4355 52.4043C26.4355 54.0039 27.1875 54.9199 28.3428 54.9199ZM34.4814 56H33.0254V48.8086H34.4814V53.8467H34.5361L37.8584 48.8086H39.3145V56H37.8584V50.9482H37.8037L34.4814 56ZM47.0391 51.1123H45.6172C45.4258 50.4492 44.8789 49.9092 43.9629 49.9092C42.8213 49.9092 42.0762 50.8867 42.0762 52.4043C42.0762 53.9629 42.8281 54.8994 43.9766 54.8994C44.8516 54.8994 45.4258 54.4619 45.6309 53.71H47.0527C46.8408 55.1523 45.6582 56.1367 43.9629 56.1367C41.9053 56.1367 40.5791 54.708 40.5791 52.4043C40.5791 50.1484 41.9053 48.6787 43.9492 48.6787C45.7266 48.6787 46.834 49.7861 47.0391 51.1123ZM51.1611 52.1855L54.4697 56H52.6172L49.7666 52.6846H49.7119V56H48.2422V48.8086H49.7119V51.8848H49.7666L52.583 48.8086H54.3467L51.1611 52.1855Z" fill="#9B9B9B"/>
</svg>
