<svg width="22" height="22" viewBox="0 0 22 22" fill="none" xmlns="http://www.w3.org/2000/svg">
<g id="&#208;&#184;&#208;&#186;&#208;&#190;&#208;&#189;&#208;&#186;&#208;&#176;/&#209;&#129;&#209;&#130;&#208;&#176;&#209;&#130;&#209;&#131;&#209;&#129; &#208;&#183;&#208;&#176;&#208;&#186;&#208;&#176;&#208;&#183;&#208;&#176;">
<path id="Vector" d="M14.4375 13.0625C14.4375 13.2448 14.3651 13.4197 14.2361 13.5486C14.1072 13.6776 13.9323 13.75 13.75 13.75H8.25C8.06766 13.75 7.8928 13.6776 7.76386 13.5486C7.63493 13.4197 7.5625 13.2448 7.5625 13.0625C7.5625 12.8802 7.63493 12.7053 7.76386 12.5764C7.8928 12.4474 8.06766 12.375 8.25 12.375H13.75C13.9323 12.375 14.1072 12.4474 14.2361 12.5764C14.3651 12.7053 14.4375 12.8802 14.4375 13.0625ZM13.75 9.625H8.25C8.06766 9.625 7.8928 9.69743 7.76386 9.82636C7.63493 9.95529 7.5625 10.1302 7.5625 10.3125C7.5625 10.4948 7.63493 10.6697 7.76386 10.7986C7.8928 10.9276 8.06766 11 8.25 11H13.75C13.9323 11 14.1072 10.9276 14.2361 10.7986C14.3651 10.6697 14.4375 10.4948 14.4375 10.3125C14.4375 10.1302 14.3651 9.95529 14.2361 9.82636C14.1072 9.69743 13.9323 9.625 13.75 9.625ZM18.5625 4.125V18.5625C18.5625 18.9272 18.4176 19.2769 18.1598 19.5348C17.9019 19.7926 17.5522 19.9375 17.1875 19.9375H4.8125C4.44783 19.9375 4.09809 19.7926 3.84023 19.5348C3.58237 19.2769 3.4375 18.9272 3.4375 18.5625V4.125C3.4375 3.76032 3.58237 3.41059 3.84023 3.15273C4.09809 2.89486 4.44783 2.75 4.8125 2.75H7.92859C8.31489 2.3175 8.78817 1.97145 9.31746 1.73452C9.84674 1.4976 10.4201 1.37512 11 1.37512C11.5799 1.37512 12.1533 1.4976 12.6825 1.73452C13.2118 1.97145 13.6851 2.3175 14.0714 2.75H17.1875C17.5522 2.75 17.9019 2.89486 18.1598 3.15273C18.4176 3.41059 18.5625 3.76032 18.5625 4.125ZM8.25 5.5H13.75C13.75 4.77065 13.4603 4.07118 12.9445 3.55545C12.4288 3.03973 11.7293 2.75 11 2.75C10.2707 2.75 9.57118 3.03973 9.05546 3.55545C8.53973 4.07118 8.25 4.77065 8.25 5.5ZM17.1875 4.125H14.8887C15.0451 4.56656 15.125 5.03156 15.125 5.5V6.1875C15.125 6.36983 15.0526 6.5447 14.9236 6.67363C14.7947 6.80256 14.6198 6.875 14.4375 6.875H7.5625C7.38016 6.875 7.2053 6.80256 7.07636 6.67363C6.94743 6.5447 6.875 6.36983 6.875 6.1875V5.5C6.87502 5.03156 6.95494 4.56656 7.11133 4.125H4.8125V18.5625H17.1875V4.125Z" fill="#9B9B9B"/>
</g>
</svg>
