<svg width="27" height="26" viewBox="0 0 27 26" fill="none" xmlns="http://www.w3.org/2000/svg">
<g id="&#208;&#184;&#208;&#186;&#208;&#190;&#208;&#189;&#208;&#186;&#208;&#176;/&#208;&#188;&#208;&#190;&#208;&#185; &#208;&#191;&#209;&#128;&#208;&#190;&#209;&#132;&#208;&#184;&#208;&#187;&#209;&#140;">
<path id="Vector" d="M13.5 0C10.9288 0 8.41543 0.762437 6.27759 2.1909C4.13975 3.61935 2.47351 5.64968 1.48957 8.02512C0.505633 10.4006 0.248189 13.0144 0.749797 15.5362C1.25141 18.0579 2.48953 20.3743 4.30762 22.1924C6.1257 24.0105 8.44208 25.2486 10.9638 25.7502C13.4856 26.2518 16.0995 25.9944 18.4749 25.0104C20.8503 24.0265 22.8807 22.3603 24.3091 20.2224C25.7376 18.0846 26.5 15.5712 26.5 13C26.4964 9.5533 25.1256 6.24882 22.6884 3.81163C20.2512 1.37445 16.9467 0.00363977 13.5 0ZM6.76001 21.6875C7.48342 20.5561 8.48001 19.625 9.65791 18.9801C10.8358 18.3351 12.1571 17.9971 13.5 17.9971C14.8429 17.9971 16.1642 18.3351 17.3421 18.9801C18.52 19.625 19.5166 20.5561 20.24 21.6875C18.3129 23.1862 15.9413 23.9999 13.5 23.9999C11.0587 23.9999 8.68709 23.1862 6.76001 21.6875ZM9.50001 12C9.50001 11.2089 9.7346 10.4355 10.1741 9.77772C10.6137 9.11992 11.2384 8.60723 11.9693 8.30448C12.7002 8.00173 13.5044 7.92252 14.2804 8.07686C15.0563 8.2312 15.769 8.61216 16.3284 9.17157C16.8878 9.73098 17.2688 10.4437 17.4231 11.2196C17.5775 11.9956 17.4983 12.7998 17.1955 13.5307C16.8928 14.2616 16.3801 14.8864 15.7223 15.3259C15.0645 15.7654 14.2911 16 13.5 16C12.4391 16 11.4217 15.5786 10.6716 14.8284C9.92143 14.0783 9.50001 13.0609 9.50001 12ZM21.72 20.3013C20.6047 18.6851 19.0365 17.4348 17.2125 16.7075C18.1923 15.9358 18.9072 14.878 19.2579 13.6811C19.6086 12.4843 19.5776 11.2079 19.1693 10.0294C18.7609 8.851 17.9955 7.82911 16.9794 7.10586C15.9634 6.38262 14.7472 5.99397 13.5 5.99397C12.2528 5.99397 11.0366 6.38262 10.0206 7.10586C9.00452 7.82911 8.23909 8.851 7.83074 10.0294C7.42238 11.2079 7.3914 12.4843 7.74209 13.6811C8.09279 14.878 8.80774 15.9358 9.78751 16.7075C7.96353 17.4348 6.39529 18.6851 5.28001 20.3013C3.87072 18.7165 2.9496 16.7581 2.62756 14.6619C2.30553 12.5657 2.59631 10.4211 3.4649 8.48637C4.33349 6.55163 5.74285 4.90922 7.52326 3.75692C9.30368 2.60462 11.3792 1.99156 13.5 1.99156C15.6208 1.99156 17.6963 2.60462 19.4768 3.75692C21.2572 4.90922 22.6665 6.55163 23.5351 8.48637C24.4037 10.4211 24.6945 12.5657 24.3724 14.6619C24.0504 16.7581 23.1293 18.7165 21.72 20.3013Z" fill="#9B9B9B"/>
</g>
</svg>
