<svg width="8" height="12" viewBox="0 0 8 12" fill="none" xmlns="http://www.w3.org/2000/svg">
<path id="Vector" d="M1.13061 0.498728L7.0613 5.67492C7.11644 5.72299 7.16018 5.78008 7.19003 5.84292C7.21988 5.90575 7.23524 5.97311 7.23524 6.04113C7.23524 6.10916 7.21988 6.17651 7.19003 6.23935C7.16018 6.30219 7.11644 6.35928 7.0613 6.40735L1.13061 11.5835C1.01933 11.6807 0.868392 11.7352 0.711013 11.7352C0.553634 11.7352 0.402701 11.6807 0.291417 11.5835C0.180133 11.4864 0.117615 11.3547 0.117615 11.2173C0.117615 11.08 0.180133 10.9482 0.291417 10.8511L5.80325 6.04113L0.291418 1.23116C0.236316 1.18307 0.192607 1.12597 0.162786 1.06314C0.132965 1.0003 0.117616 0.932956 0.117616 0.864943C0.117616 0.796931 0.132965 0.729584 0.162786 0.666749C0.192607 0.603913 0.236316 0.54682 0.291418 0.498728C0.34652 0.450635 0.411936 0.412487 0.483931 0.38646C0.555925 0.360433 0.633089 0.347036 0.711015 0.347036C0.788941 0.347036 0.866104 0.360433 0.938099 0.38646C1.01009 0.412487 1.07551 0.450636 1.13061 0.498728Z" fill="#9B9B9B"/>
</svg>
