<svg width="16" height="10" viewBox="0 0 16 10" fill="none" xmlns="http://www.w3.org/2000/svg">
<path id="Vector" d="M0.213121 1.42322L7.48548 9.75562C7.55302 9.8331 7.63323 9.89455 7.72151 9.93649C7.8098 9.97842 7.90443 10 8 10C8.09557 10 8.1902 9.97842 8.27849 9.93649C8.36677 9.89455 8.44698 9.8331 8.51452 9.75562L15.7869 1.42322C15.9233 1.26687 16 1.05482 16 0.833704C16 0.612592 15.9233 0.400535 15.7869 0.244186C15.6504 0.0878359 15.4653 -4.67413e-08 15.2724 -6.36123e-08C15.0794 -8.04834e-08 14.8943 0.0878358 14.7578 0.244186L8 7.98811L1.24216 0.244184C1.17459 0.166768 1.09438 0.105358 1.0061 0.0634602C0.917815 0.0215627 0.823196 -1.3268e-06 0.727641 -1.33515e-06C0.632086 -1.34351e-06 0.537466 0.0215626 0.449185 0.0634602C0.360903 0.105358 0.280689 0.166768 0.213121 0.244184C0.145553 0.321601 0.0919565 0.413508 0.0553892 0.514657C0.0188218 0.615807 -2.17376e-07 0.724219 -2.26948e-07 0.833702C-2.36519e-07 0.943186 0.0188218 1.0516 0.0553891 1.15275C0.0919565 1.2539 0.145553 1.3458 0.213121 1.42322Z" fill="#9B9B9B"/>
</svg>
