<svg width="40" height="26" viewBox="0 0 40 26" fill="none" xmlns="http://www.w3.org/2000/svg">
<g id="visa logo">
<path id="Vector" d="M15.3399 17.9109L17.0013 8.17343H19.6588L17.9962 17.9109H15.3399ZM27.5975 8.38334C27.0711 8.18607 26.246 7.97437 25.2157 7.97437C22.5897 7.97437 20.7401 9.29506 20.7242 11.1879C20.7094 12.5871 22.0448 13.3677 23.0528 13.8334C24.0873 14.3108 24.435 14.6152 24.43 15.0413C24.4234 15.6941 23.604 15.9921 22.8401 15.9921C21.7765 15.9921 21.2114 15.8445 20.3386 15.4811L19.996 15.3264L19.6231 17.5062C20.2439 17.7781 21.3916 18.0135 22.5835 18.0257C25.377 18.0257 27.1905 16.7201 27.2112 14.6987C27.2211 13.591 26.5131 12.7481 24.9798 12.0531C24.051 11.6026 23.4821 11.302 23.4881 10.8459C23.4881 10.4411 23.9696 10.0083 25.0102 10.0083C25.8791 9.99483 26.5087 10.1841 26.9992 10.3814L27.2373 10.4937L27.5975 8.38334ZM34.4362 8.17328H32.3827C31.7466 8.17328 31.2705 8.34668 30.9912 8.98079L27.0444 17.9045H29.835C29.835 17.9045 30.2912 16.7047 30.3944 16.4412C30.6993 16.4412 33.4103 16.4454 33.7979 16.4454C33.8773 16.7863 34.1212 17.9045 34.1212 17.9045H36.5871L34.4362 8.17298V8.17328ZM31.1781 14.4612C31.3979 13.9001 32.237 11.7391 32.237 11.7391C32.2213 11.765 32.4552 11.1753 32.5893 10.8097L32.7689 11.6493C32.7689 11.6493 33.2777 13.9736 33.3841 14.461H31.1781V14.4612ZM13.0839 8.17328L10.4821 14.8138L10.2049 13.4644C9.72052 11.9088 8.21147 10.2233 6.52441 9.37958L8.90346 17.8954L11.7152 17.8923L15.8991 8.17318L13.0839 8.17313" fill="#0E4595"/>
<path id="Vector_2" d="M8.05461 8.17297H3.76932L3.73535 8.37557C7.06926 9.18159 9.27519 11.1294 10.1911 13.4701L9.2593 8.99536C9.09848 8.37876 8.6319 8.19471 8.05471 8.17322" fill="#F2AE14"/>
</g>
</svg>
