<svg width="26" height="28" viewBox="0 0 26 28" fill="none" xmlns="http://www.w3.org/2000/svg">
<g id="&#208;&#184;&#208;&#186;&#208;&#190;&#208;&#189;&#208;&#186;&#208;&#176;/whatsapp">
<path id="Vector" d="M13 0C5.80667 0 0 5.8625 0 13.125C0 16.1 0.953333 18.9 2.77333 21.175L0.953333 26.775C0.866667 27.125 0.953333 27.475 1.21333 27.7375C1.3 27.9125 1.56 28 1.73333 28C1.82 28 1.99333 28 2.08 27.9125L8.06 25.2C9.62 25.9 11.2667 26.25 13 26.25C20.1933 26.25 26 20.3875 26 13.125C26 5.8625 20.1933 0 13 0ZM20.54 17.9375C20.1933 18.9875 18.8933 19.8625 17.7667 20.0375C17.5067 20.125 17.2467 20.125 16.9 20.125C16.2067 20.125 15.1667 19.95 13.3467 19.1625C11.2667 18.2875 9.18667 16.45 7.54 14.0875V14C7.02 13.2125 6.06667 11.725 6.06667 10.15C6.06667 8.225 7.02 7.2625 7.36667 6.825C7.8 6.3875 8.40667 6.125 9.1 6.125C9.27333 6.125 9.36 6.125 9.53333 6.125C10.14 6.125 10.5733 6.3 11.0067 7.175L11.3533 7.875C11.6133 8.575 11.96 9.3625 12.0467 9.45C12.3067 9.975 12.3067 10.4125 12.0467 10.85C11.96 11.1125 11.7867 11.2875 11.6133 11.4625C11.5267 11.6375 11.44 11.725 11.3533 11.725C11.2667 11.8125 11.2667 11.8125 11.18 11.9C11.44 12.3375 11.96 13.125 12.6533 13.7375C13.6933 14.7 14.4733 14.9625 14.9067 15.1375C15.08 14.9625 15.2533 14.6125 15.5133 14.35L15.6 14.175C16.0333 13.5625 16.7267 13.3875 17.42 13.65C17.7667 13.825 19.6733 14.7 19.6733 14.7L19.8467 14.7875C20.1067 14.9625 20.4533 15.05 20.6267 15.4C20.9733 16.1875 20.7133 17.325 20.54 17.9375Z" fill="#D56ED7"/>
</g>
</svg>
