<svg width="51" height="28" viewBox="0 0 51 28" fill="none" xmlns="http://www.w3.org/2000/svg">
<g id="Frame 14388">
<g id="Group">
<path id="Vector" fill-rule="evenodd" clip-rule="evenodd" d="M5.53056 5.40576C7.30322 4.35828 9.40826 3.8849 11.4529 4.06619C13.7694 4.25756 16.0155 5.29497 17.6572 6.93669C19.2083 8.44749 20.2255 10.4921 20.5176 12.6273C20.7896 14.5511 20.4975 16.5554 19.6615 18.3079C18.6342 20.5137 16.7608 22.3166 14.5248 23.2633C12.6414 24.0791 10.496 24.2705 8.49171 23.8374C6.58811 23.4245 4.80538 22.4475 3.44567 21.0475C1.69315 19.295 0.665811 16.8576 0.585236 14.3799V13.6043C0.635595 12.9094 0.726243 12.2043 0.907538 11.5295C1.54207 8.99137 3.2543 6.73526 5.53056 5.40576ZM8.36078 8.62878C7.50466 9.0518 6.82984 9.84749 6.58811 10.7741C6.31617 11.7813 6.3766 12.8993 6.81977 13.8561C7.26293 14.7727 8.08883 15.4273 8.88452 16.0317C7.9579 17.3712 7.06149 18.7309 6.1248 20.0705C6.90034 20.0705 7.68596 20.0907 8.46149 20.0604C9.41833 18.5698 10.3852 17.0791 11.3421 15.5885C10.8183 15.1957 10.2744 14.8331 9.7507 14.4403C9.13632 13.977 8.62265 13.3223 8.51185 12.5367C8.37085 11.7309 8.45142 10.764 9.13631 10.2201C9.95214 9.52518 11.0802 9.65612 12.0773 9.64605C12.0773 13.1209 12.0773 16.5957 12.0773 20.0705C12.7521 20.0705 13.427 20.0705 14.1018 20.0705C14.1018 16.0619 14.1018 12.0532 14.1018 8.05468C13.1248 8.04461 12.1378 8.05468 11.1608 8.05468C10.2039 8.04461 9.21689 8.17554 8.36078 8.62878Z" fill="#FC3F1D"/>
<path id="Vector_2" fill-rule="evenodd" clip-rule="evenodd" d="M8.36076 8.62867C9.21687 8.1855 10.2039 8.05457 11.1608 8.05457C12.1377 8.05457 13.1248 8.05457 14.1018 8.05457C14.1018 12.0632 14.1018 16.0718 14.1018 20.0704C13.4269 20.0704 12.7521 20.0704 12.0773 20.0704C12.0773 16.5956 12.0773 13.1208 12.0773 9.64593C11.0903 9.65601 9.95212 9.52507 9.1363 10.22C8.4514 10.7639 8.37083 11.7308 8.51184 12.5366C8.62263 13.3222 9.1363 13.9769 9.75069 14.4402C10.2744 14.833 10.8183 15.1956 11.3421 15.5884C10.3852 17.079 9.41831 18.5697 8.46148 20.0603C7.68594 20.0805 6.9104 20.0704 6.12479 20.0704C7.05141 18.7308 7.95788 17.3711 8.8845 16.0315C8.08881 15.4272 7.26292 14.7726 6.81975 13.856C6.37659 12.8992 6.31615 11.7812 6.5881 10.774C6.82982 9.8373 7.50464 9.05169 8.36076 8.62867Z" fill="white"/>
<path id="Vector_3" fill-rule="evenodd" clip-rule="evenodd" d="M25.9866 8.03418C27.0945 8.04425 28.1924 8.02411 29.3003 8.04425C30.4183 8.06439 31.5967 8.31619 32.4629 9.07159C33.1981 9.70612 33.5607 10.6831 33.5909 11.6399C33.6211 12.5666 33.4499 13.5637 32.8657 14.309C32.342 15.014 31.506 15.427 30.66 15.6184C29.824 15.8097 28.9578 15.7795 28.1017 15.7795C28.0916 17.2097 28.1017 18.6299 28.1017 20.0601C27.4067 20.0601 26.7017 20.0601 26.0067 20.0601C25.9866 16.0514 25.9866 12.0428 25.9866 8.03418ZM28.0916 9.67591C28.0916 11.1666 28.0916 12.6673 28.0916 14.1579C28.9377 14.1378 29.8643 14.2687 30.6096 13.7752C31.3147 13.332 31.506 12.4255 31.4557 11.6399C31.4355 10.9853 31.1636 10.2802 30.5593 9.96799C29.8039 9.54497 28.9075 9.70612 28.0916 9.67591ZM36.683 8.03418C35.6255 12.0428 34.5578 16.0514 33.5003 20.0601C34.0945 20.0601 34.6988 20.0601 35.2931 20.0601C35.5247 19.1838 35.7362 18.3176 35.9679 17.4414C37.1967 17.4414 38.4255 17.4414 39.6542 17.4414C39.8657 18.3176 40.0873 19.1838 40.3089 20.0601C41.0341 20.0601 41.7593 20.0601 42.4844 20.0601C41.4269 16.0514 40.3794 12.0428 39.3219 8.03418C38.4456 8.03418 37.5693 8.03418 36.683 8.03418ZM37.8211 10.2399C38.3046 12.0932 38.7679 13.9464 39.2413 15.7996C38.2945 15.7996 37.3377 15.7996 36.3909 15.7996C36.8744 13.9464 37.3478 12.0932 37.8211 10.2399ZM41.8096 8.03418C42.5549 8.03418 43.3003 8.03418 44.0557 8.03418C44.8715 9.70612 45.6873 11.3881 46.5132 13.05C47.329 11.3781 48.165 9.70612 48.9808 8.03418C49.6355 8.03418 50.2801 8.03418 50.9348 8.03418C49.7765 10.3407 48.578 12.627 47.4298 14.9435C47.4197 16.6457 47.4298 18.3579 47.4197 20.0601C46.7247 20.0601 46.0298 20.0601 45.3348 20.0601C45.3247 18.3579 45.3449 16.6457 45.3247 14.9435C44.1765 12.627 42.9679 10.3507 41.8096 8.03418Z" fill="black"/>
</g>
</g>
</svg>
